#N canvas 636 162 502 398 10;
#X obj 166 276 fm~;
#X obj 166 312 dac~;
#X msg 213 207 vibratoAmp 0;
#X msg 70 221 gate 1;
#X msg 121 221 gate 0;
#X obj 233 310 writesf~;
#X msg 270 284 start;
#X msg 323 284 stop;
#X obj 162 117 float;
#X msg 161 14 bang;
#X msg 183 64 stop;
#X msg 270 81 0;
#X floatatom 205 145 5 0 0 0 - - -;
#X msg 182 178 Nonlinearity \$1;
#X obj 205 117 + 0.01;
#X obj 162 91 metro 100;
#X msg 234 261 open -wave tst.wav;
#X connect 0 1 1 0;
#X connect 0 2 1 1;
#X connect 0 2 5 0;
#X connect 2 0 0 0;
#X connect 3 0 0 0;
#X connect 4 0 0 0;
#X connect 6 0 5 0;
#X connect 7 0 5 0;
#X connect 8 0 14 0;
#X connect 9 0 11 0;
#X connect 9 0 3 0;
#X connect 9 0 15 0;
#X connect 9 0 6 0;
#X connect 10 0 15 0;
#X connect 11 0 13 0;
#X connect 11 0 14 0;
#X connect 12 0 13 0;
#X connect 13 0 0 0;
#X connect 14 0 8 1;
#X connect 14 0 12 0;
#X connect 15 0 8 0;
#X connect 16 0 5 0;
