#N canvas 17 38 1303 691 10;
#X obj 20 154 clarinet;
#X obj 460 582 dac~;
#X obj 484 24 midi-in;
#X obj 516 130 brass;
#X msg 71 520 \; pd dsp 1;
#X msg 71 558 \; pd dsp 0;
#X obj 768 160 flute;
#X obj 1017 130 fluteStk;
#X obj 269 125 blowHole;
#X connect 0 1 1 0;
#X connect 0 2 1 1;
#X connect 2 0 3 0;
#X connect 2 0 0 0;
#X connect 2 0 6 0;
#X connect 2 0 7 0;
#X connect 2 0 8 0;
#X connect 2 1 3 1;
#X connect 2 1 0 1;
#X connect 2 1 6 1;
#X connect 2 1 7 1;
#X connect 2 1 8 1;
#X connect 3 1 1 0;
#X connect 3 2 1 1;
#X connect 6 1 1 0;
#X connect 6 2 1 1;
#X connect 7 1 1 0;
#X connect 7 2 1 1;
#X connect 8 1 1 0;
#X connect 8 2 1 1;
