#N canvas 435 166 372 477 10;
#X obj 145 317 dac~;
#X obj 51 137 midi-in;
#X msg 74 384 \; pd dsp 1;
#X msg 74 422 \; pd dsp 0;
#X obj 51 191 sitar;
#X connect 1 0 4 0;
#X connect 1 1 4 1;
#X connect 4 1 0 0;
#X connect 4 2 0 1;
