#N canvas 27 39 1047 586 10;
#X obj 246 435 dac~;
#X obj -258 -14 tibetanBowl;
#X obj 5 -13 tunedBar;
#X obj 255 -14 uniBar;
#X obj 509 -13 voiceForm;
#X connect 1 1 0 0;
#X connect 1 2 0 1;
#X connect 2 1 0 0;
#X connect 2 2 0 1;
#X connect 3 1 0 0;
#X connect 3 2 0 1;
#X connect 4 1 0 0;
#X connect 4 2 0 1;
