#N canvas 8 28 1287 549 10;
#X obj 412 495 dac~;
#X obj -258 -14 flute;
#X obj 5 -13 flutestk;
#X obj 255 -14 glassHarmonica;
#X obj 509 -13 modalBar;
#X obj 763 -11 saxophony;
#X connect 1 1 0 0;
#X connect 1 2 0 1;
#X connect 2 1 0 0;
#X connect 2 2 0 1;
#X connect 3 1 0 0;
#X connect 3 2 0 1;
#X connect 4 1 0 0;
#X connect 4 2 0 1;
#X connect 5 1 0 0;
#X connect 5 2 0 1;
