#N canvas 27 39 1456 755 10;
#X obj -243 124 tibetanBowl;
#X obj 12 129 tunedBar;
#X obj 266 121 uniBar;
#X obj 785 119 voiceForm;
#X obj 523 6 midi-in;
#X obj 271 563 audio-out;
#X obj 524 119 bass;
#X connect 2 0 5 0;
#X connect 2 1 5 1;
#X connect 2 2 5 2;
#X connect 3 0 5 0;
#X connect 3 1 5 1;
#X connect 3 2 5 2;
#X connect 4 0 2 0;
#X connect 4 0 6 0;
#X connect 4 0 3 0;
#X connect 4 1 2 1;
#X connect 4 1 6 1;
#X connect 4 1 3 1;
#X connect 6 0 5 0;
#X connect 6 1 5 1;
#X connect 6 2 5 2;
