#N canvas 567 157 1300 792 10;
#X obj 252 -43 bowed;
#X obj -273 -14 blowBotle;
#X obj 2 -36 blowHole;
#X obj 506 -42 brass;
#X obj 760 -40 clarinet;
#X obj 246 -143 midi-in 1;
#X obj 252 424 audio-out;
#X obj 877 362 loadbang;
#X msg 877 412 \; pd dsp 1;
#X msg 878 456 \; pd dsp 0;
#X connect 0 0 6 0;
#X connect 0 1 6 1;
#X connect 0 2 6 2;
#X connect 1 0 6 0;
#X connect 1 1 6 1;
#X connect 1 2 6 2;
#X connect 2 0 6 0;
#X connect 2 1 6 1;
#X connect 2 2 6 2;
#X connect 3 1 6 1;
#X connect 3 2 6 2;
#X connect 4 1 6 1;
#X connect 4 2 6 2;
#X connect 5 0 1 0;
#X connect 5 0 2 0;
#X connect 5 0 0 0;
#X connect 5 0 4 0;
#X connect 5 0 3 0;
#X connect 5 1 1 1;
#X connect 5 1 2 1;
#X connect 5 1 0 1;
#X connect 5 1 3 1;
#X connect 5 1 4 1;
#X connect 7 0 8 0;
