#N canvas 161 190 1284 793 10;
#X obj -346 119 flute;
#X obj -83 120 flutestk;
#X obj 172 122 glassHarmonica;
#X obj 421 120 modalBar;
#X obj 675 124 saxophony;
#X obj 173 5 midi-in;
#X obj 173 594 audio-out;
#X connect 0 0 6 0;
#X connect 0 1 6 1;
#X connect 0 2 6 2;
#X connect 1 0 6 0;
#X connect 1 1 6 1;
#X connect 1 2 6 2;
#X connect 2 0 6 0;
#X connect 2 1 6 1;
#X connect 2 2 6 2;
#X connect 3 0 6 0;
#X connect 3 1 6 1;
#X connect 3 2 6 2;
#X connect 4 0 6 0;
#X connect 4 1 6 1;
#X connect 4 2 6 2;
#X connect 5 0 2 0;
#X connect 5 0 3 0;
#X connect 5 0 0 0;
#X connect 5 0 1 0;
#X connect 5 0 4 0;
#X connect 5 1 2 1;
#X connect 5 1 3 1;
#X connect 5 1 4 1;
#X connect 5 1 1 1;
#X connect 5 1 0 1;
