#N canvas 0 0 450 300 10;
#X obj 10 420 inlet;
#X obj 130 420 inlet;
#X obj 190 420 r \$0-read;
#X obj 130 450 r \$0-all;
#X obj 190 450 faust-control \$0;
#X obj 190 480 s \$0-write;
#X obj 130 480 r \$0-in;
#X obj 130 540 s \$0-out;
#X obj 10 510 faust-gate 1;
#X obj 130 510 brass~;
#X obj 130 570 outlet~;
#X obj 190 570 outlet~;
#X obj 10 570 outlet;
#X connect 1 0 4 0;
#X connect 2 0 4 0;
#X connect 4 0 5 0;
#X connect 1 0 12 0;
#X connect 6 0 9 0;
#X connect 9 0 7 0;
#X connect 0 0 8 0;
#X connect 8 0 9 0;
#X connect 3 0 9 0;
#X connect 9 1 10 0;
#X connect 9 2 11 0;
#X obj 10 30 hsl 128 15 0 2 0 0 \$0-brass/Envelope-Parameters/envelopeAttack \$0-brass/Envelope-Parameters/envelopeAttack envelopeAttack -2 -6 0 10 -262144 -1 -1 0 1;
#X obj 160 30 nbx 5 14 0 2 0 0 \$0-brass/Envelope-Parameters/envelopeAttack \$0-brass/Envelope-Parameters/envelopeAttack empty 0 -6 0 10 -262144 -1 -1 256;
#X obj 10 60 hsl 128 15 0 2 0 0 \$0-brass/Envelope-Parameters/envelopeDecay \$0-brass/Envelope-Parameters/envelopeDecay envelopeDecay -2 -6 0 10 -262144 -1 -1 0 1;
#X obj 160 60 nbx 5 14 0 2 0 0 \$0-brass/Envelope-Parameters/envelopeDecay \$0-brass/Envelope-Parameters/envelopeDecay empty 0 -6 0 10 -262144 -1 -1 256;
#X obj 10 90 hsl 128 15 0 2 0 0 \$0-brass/Envelope-Parameters/envelopeRelease \$0-brass/Envelope-Parameters/envelopeRelease envelopeRelease -2 -6 0 10 -262144 -1 -1 0 1;
#X obj 160 90 nbx 5 14 0 2 0 0 \$0-brass/Envelope-Parameters/envelopeRelease \$0-brass/Envelope-Parameters/envelopeRelease empty 0 -6 0 10 -262144 -1 -1 256;
#X obj 10 120 hsl 128 15 0.01 1 0 0 \$0-brass/Physical-Parameters/lipTension \$0-brass/Physical-Parameters/lipTension lipTension -2 -6 0 10 -262144 -1 -1 0 1;
#X obj 160 120 nbx 5 14 0.01 1 0 0 \$0-brass/Physical-Parameters/lipTension \$0-brass/Physical-Parameters/lipTension empty 0 -6 0 10 -262144 -1 -1 256;
#X obj 10 150 hsl 128 15 0.01 1 0 0 \$0-brass/Physical-Parameters/pressure \$0-brass/Physical-Parameters/pressure pressure -2 -6 0 10 -262144 -1 -1 0 1;
#X obj 160 150 nbx 5 14 0.01 1 0 0 \$0-brass/Physical-Parameters/pressure \$0-brass/Physical-Parameters/pressure empty 0 -6 0 10 -262144 -1 -1 256;
#X obj 10 180 hsl 128 15 0.01 1 0 0 \$0-brass/Physical-Parameters/slideLength \$0-brass/Physical-Parameters/slideLength slideLength -2 -6 0 10 -262144 -1 -1 0 1;
#X obj 160 180 nbx 5 14 0.01 1 0 0 \$0-brass/Physical-Parameters/slideLength \$0-brass/Physical-Parameters/slideLength empty 0 -6 0 10 -262144 -1 -1 256;
#X obj 10 210 hsl 128 15 0 2 0 0 \$0-brass/Vibrato-Parameters/vibratoAttack \$0-brass/Vibrato-Parameters/vibratoAttack vibratoAttack -2 -6 0 10 -262144 -1 -1 0 1;
#X obj 160 210 nbx 5 14 0 2 0 0 \$0-brass/Vibrato-Parameters/vibratoAttack \$0-brass/Vibrato-Parameters/vibratoAttack empty 0 -6 0 10 -262144 -1 -1 256;
#X obj 10 240 hsl 128 15 0 2 0 0 \$0-brass/Vibrato-Parameters/vibratoBegin \$0-brass/Vibrato-Parameters/vibratoBegin vibratoBegin -2 -6 0 10 -262144 -1 -1 0 1;
#X obj 160 240 nbx 5 14 0 2 0 0 \$0-brass/Vibrato-Parameters/vibratoBegin \$0-brass/Vibrato-Parameters/vibratoBegin empty 0 -6 0 10 -262144 -1 -1 256;
#X obj 10 270 hsl 128 15 1 15 0 0 \$0-brass/Vibrato-Parameters/vibratoFreq \$0-brass/Vibrato-Parameters/vibratoFreq vibratoFreq -2 -6 0 10 -262144 -1 -1 0 1;
#X obj 160 270 nbx 5 14 1 15 0 0 \$0-brass/Vibrato-Parameters/vibratoFreq \$0-brass/Vibrato-Parameters/vibratoFreq empty 0 -6 0 10 -262144 -1 -1 256;
#X obj 10 300 hsl 128 15 0 1 0 0 \$0-brass/Vibrato-Parameters/vibratoGain \$0-brass/Vibrato-Parameters/vibratoGain vibratoGain -2 -6 0 10 -262144 -1 -1 0 1;
#X obj 160 300 nbx 5 14 0 1 0 0 \$0-brass/Vibrato-Parameters/vibratoGain \$0-brass/Vibrato-Parameters/vibratoGain empty 0 -6 0 10 -262144 -1 -1 256;
#X obj 10 330 hsl 128 15 0 2 0 0 \$0-brass/Vibrato-Parameters/vibratoRelease \$0-brass/Vibrato-Parameters/vibratoRelease vibratoRelease -2 -6 0 10 -262144 -1 -1 0 1;
#X obj 160 330 nbx 5 14 0 2 0 0 \$0-brass/Vibrato-Parameters/vibratoRelease \$0-brass/Vibrato-Parameters/vibratoRelease empty 0 -6 0 10 -262144 -1 -1 256;
#X obj 197 3 bng 15 250 50 1 \$0-init \$0-ignore empty 0 -6 0 10 -262144 -1 -1;
#X obj 217 3 tgl 15 1 \$0-active \$0-active empty 0 -6 0 10 -262144 -1 -1 1 1;
#X obj 450 10 r \$0-init;
#X obj 842 10 s \$0-all;
#X obj 1038 10 s \$0-read;
#X obj 1234 10 r \$0-write;
#X msg 450 30 1;
#X obj 450 50 s \$0-active;
#X connect 41 0 42 0;
#X obj 842 30 r \$0-active;
#X msg 842 50 active \$1;
#X connect 43 0 44 0;
#X connect 44 0 38 0;
#X obj 1234 30 route active;
#X obj 1234 50 s \$0-active;
#X connect 40 0 45 0;
#X connect 45 0 46 0;
#X msg 450 70 0.005;
#X obj 450 90 s \$0-brass/Envelope-Parameters/envelopeAttack;
#X connect 37 0 47 0;
#X connect 47 0 48 0;
#X obj 842 70 r \$0-brass/Envelope-Parameters/envelopeAttack;
#X msg 842 90 /brass/Envelope-Parameters/envelopeAttack \$1;
#X connect 49 0 50 0;
#X connect 50 0 38 0;
#X obj 1234 70 route /brass/Envelope-Parameters/envelopeAttack;
#X obj 1234 90 s \$0-brass/Envelope-Parameters/envelopeAttack;
#X connect 45 1 51 0;
#X connect 51 0 52 0;
#X msg 450 110 0.001;
#X obj 450 130 s \$0-brass/Envelope-Parameters/envelopeDecay;
#X connect 37 0 53 0;
#X connect 53 0 54 0;
#X obj 842 110 r \$0-brass/Envelope-Parameters/envelopeDecay;
#X msg 842 130 /brass/Envelope-Parameters/envelopeDecay \$1;
#X connect 55 0 56 0;
#X connect 56 0 38 0;
#X obj 1234 110 route /brass/Envelope-Parameters/envelopeDecay;
#X obj 1234 130 s \$0-brass/Envelope-Parameters/envelopeDecay;
#X connect 51 1 57 0;
#X connect 57 0 58 0;
#X msg 450 150 0.07;
#X obj 450 170 s \$0-brass/Envelope-Parameters/envelopeRelease;
#X connect 37 0 59 0;
#X connect 59 0 60 0;
#X obj 842 150 r \$0-brass/Envelope-Parameters/envelopeRelease;
#X msg 842 170 /brass/Envelope-Parameters/envelopeRelease \$1;
#X connect 61 0 62 0;
#X connect 62 0 38 0;
#X obj 1234 150 route /brass/Envelope-Parameters/envelopeRelease;
#X obj 1234 170 s \$0-brass/Envelope-Parameters/envelopeRelease;
#X connect 57 1 63 0;
#X connect 63 0 64 0;
#X msg 450 190 0.5;
#X obj 450 210 s \$0-brass/Physical-Parameters/lipTension;
#X connect 37 0 65 0;
#X connect 65 0 66 0;
#X obj 842 190 r \$0-brass/Physical-Parameters/lipTension;
#X msg 842 210 /brass/Physical-Parameters/lipTension \$1;
#X connect 67 0 68 0;
#X connect 68 0 38 0;
#X obj 1234 190 route /brass/Physical-Parameters/lipTension;
#X obj 1234 210 s \$0-brass/Physical-Parameters/lipTension;
#X connect 63 1 69 0;
#X connect 69 0 70 0;
#X msg 450 230 1;
#X obj 450 250 s \$0-brass/Physical-Parameters/pressure;
#X connect 37 0 71 0;
#X connect 71 0 72 0;
#X obj 842 230 r \$0-brass/Physical-Parameters/pressure;
#X msg 842 250 /brass/Physical-Parameters/pressure \$1;
#X connect 73 0 74 0;
#X connect 74 0 38 0;
#X obj 1234 230 route /brass/Physical-Parameters/pressure;
#X obj 1234 250 s \$0-brass/Physical-Parameters/pressure;
#X connect 69 1 75 0;
#X connect 75 0 76 0;
#X msg 450 270 0.5;
#X obj 450 290 s \$0-brass/Physical-Parameters/slideLength;
#X connect 37 0 77 0;
#X connect 77 0 78 0;
#X obj 842 270 r \$0-brass/Physical-Parameters/slideLength;
#X msg 842 290 /brass/Physical-Parameters/slideLength \$1;
#X connect 79 0 80 0;
#X connect 80 0 38 0;
#X obj 1234 270 route /brass/Physical-Parameters/slideLength;
#X obj 1234 290 s \$0-brass/Physical-Parameters/slideLength;
#X connect 75 1 81 0;
#X connect 81 0 82 0;
#X msg 450 310 0.5;
#X obj 450 330 s \$0-brass/Vibrato-Parameters/vibratoAttack;
#X connect 37 0 83 0;
#X connect 83 0 84 0;
#X obj 842 310 r \$0-brass/Vibrato-Parameters/vibratoAttack;
#X msg 842 330 /brass/Vibrato-Parameters/vibratoAttack \$1;
#X connect 85 0 86 0;
#X connect 86 0 38 0;
#X obj 1234 310 route /brass/Vibrato-Parameters/vibratoAttack;
#X obj 1234 330 s \$0-brass/Vibrato-Parameters/vibratoAttack;
#X connect 81 1 87 0;
#X connect 87 0 88 0;
#X msg 450 350 0.05;
#X obj 450 370 s \$0-brass/Vibrato-Parameters/vibratoBegin;
#X connect 37 0 89 0;
#X connect 89 0 90 0;
#X obj 842 350 r \$0-brass/Vibrato-Parameters/vibratoBegin;
#X msg 842 370 /brass/Vibrato-Parameters/vibratoBegin \$1;
#X connect 91 0 92 0;
#X connect 92 0 38 0;
#X obj 1234 350 route /brass/Vibrato-Parameters/vibratoBegin;
#X obj 1234 370 s \$0-brass/Vibrato-Parameters/vibratoBegin;
#X connect 87 1 93 0;
#X connect 93 0 94 0;
#X msg 450 390 6;
#X obj 450 410 s \$0-brass/Vibrato-Parameters/vibratoFreq;
#X connect 37 0 95 0;
#X connect 95 0 96 0;
#X obj 842 390 r \$0-brass/Vibrato-Parameters/vibratoFreq;
#X msg 842 410 /brass/Vibrato-Parameters/vibratoFreq \$1;
#X connect 97 0 98 0;
#X connect 98 0 38 0;
#X obj 1234 390 route /brass/Vibrato-Parameters/vibratoFreq;
#X obj 1234 410 s \$0-brass/Vibrato-Parameters/vibratoFreq;
#X connect 93 1 99 0;
#X connect 99 0 100 0;
#X msg 450 430 0.05;
#X obj 450 450 s \$0-brass/Vibrato-Parameters/vibratoGain;
#X connect 37 0 101 0;
#X connect 101 0 102 0;
#X obj 842 430 r \$0-brass/Vibrato-Parameters/vibratoGain;
#X msg 842 450 /brass/Vibrato-Parameters/vibratoGain \$1;
#X connect 103 0 104 0;
#X connect 104 0 38 0;
#X obj 1234 430 route /brass/Vibrato-Parameters/vibratoGain;
#X obj 1234 450 s \$0-brass/Vibrato-Parameters/vibratoGain;
#X connect 99 1 105 0;
#X connect 105 0 106 0;
#X msg 450 470 0.1;
#X obj 450 490 s \$0-brass/Vibrato-Parameters/vibratoRelease;
#X connect 37 0 107 0;
#X connect 107 0 108 0;
#X obj 842 470 r \$0-brass/Vibrato-Parameters/vibratoRelease;
#X msg 842 490 /brass/Vibrato-Parameters/vibratoRelease \$1;
#X connect 109 0 110 0;
#X connect 110 0 38 0;
#X obj 1234 470 route /brass/Vibrato-Parameters/vibratoRelease;
#X obj 1234 490 s \$0-brass/Vibrato-Parameters/vibratoRelease;
#X connect 105 1 111 0;
#X connect 111 0 112 0;
#X coords 0 -1 1 1 235 350 1 0 0;
#X text 0 370 Generated Wed Feb  9 17:23:23 2011 by faust2pd v2.2. See http://faust.grame.fr and http://pure-lang.googlecode.com.;
