#N canvas 0 0 450 300 10;
#X obj 10 390 inlet;
#X obj 130 390 inlet;
#X obj 190 390 r \$0-read;
#X obj 130 420 r \$0-all;
#X obj 190 420 faust-control \$0;
#X obj 190 450 s \$0-write;
#X obj 130 450 r \$0-in;
#X obj 130 510 s \$0-out;
#X obj 10 480 faust-gate 1;
#X obj 130 480 clarinet~;
#X obj 130 540 outlet~;
#X obj 190 540 outlet~;
#X obj 10 540 outlet;
#X connect 1 0 4 0;
#X connect 2 0 4 0;
#X connect 4 0 5 0;
#X connect 1 0 12 0;
#X connect 6 0 9 0;
#X connect 9 0 7 0;
#X connect 0 0 8 0;
#X connect 8 0 9 0;
#X connect 3 0 9 0;
#X connect 9 1 10 0;
#X connect 9 2 11 0;
#X obj 10 30 hsl 128 15 0 2 0 0 \$0-clarinet/Envelope-Parameters/envelopeAttack \$0-clarinet/Envelope-Parameters/envelopeAttack envelopeAttack -2 -6 0 10 -262144 -1 -1 0 1;
#X obj 160 30 nbx 5 14 0 2 0 0 \$0-clarinet/Envelope-Parameters/envelopeAttack \$0-clarinet/Envelope-Parameters/envelopeAttack empty 0 -6 0 10 -262144 -1 -1 256;
#X obj 10 60 hsl 128 15 0 2 0 0 \$0-clarinet/Envelope-Parameters/envelopeDecay \$0-clarinet/Envelope-Parameters/envelopeDecay envelopeDecay -2 -6 0 10 -262144 -1 -1 0 1;
#X obj 160 60 nbx 5 14 0 2 0 0 \$0-clarinet/Envelope-Parameters/envelopeDecay \$0-clarinet/Envelope-Parameters/envelopeDecay empty 0 -6 0 10 -262144 -1 -1 256;
#X obj 10 90 hsl 128 15 0 2 0 0 \$0-clarinet/Envelope-Parameters/envelopeRelease \$0-clarinet/Envelope-Parameters/envelopeRelease envelopeRelease -2 -6 0 10 -262144 -1 -1 0 1;
#X obj 160 90 nbx 5 14 0 2 0 0 \$0-clarinet/Envelope-Parameters/envelopeRelease \$0-clarinet/Envelope-Parameters/envelopeRelease empty 0 -6 0 10 -262144 -1 -1 256;
#X obj 10 120 hsl 128 15 0 1 0 0 \$0-clarinet/Physical-Parameters/noiseGain \$0-clarinet/Physical-Parameters/noiseGain noiseGain -2 -6 0 10 -262144 -1 -1 0 1;
#X obj 160 120 nbx 5 14 0 1 0 0 \$0-clarinet/Physical-Parameters/noiseGain \$0-clarinet/Physical-Parameters/noiseGain empty 0 -6 0 10 -262144 -1 -1 256;
#X obj 10 150 hsl 128 15 0 1 0 0 \$0-clarinet/Physical-Parameters/pressure \$0-clarinet/Physical-Parameters/pressure pressure -2 -6 0 10 -262144 -1 -1 0 1;
#X obj 160 150 nbx 5 14 0 1 0 0 \$0-clarinet/Physical-Parameters/pressure \$0-clarinet/Physical-Parameters/pressure empty 0 -6 0 10 -262144 -1 -1 256;
#X obj 10 180 hsl 128 15 0 1 0 0 \$0-clarinet/Physical-Parameters/reedStiffness \$0-clarinet/Physical-Parameters/reedStiffness reedStiffness -2 -6 0 10 -262144 -1 -1 0 1;
#X obj 160 180 nbx 5 14 0 1 0 0 \$0-clarinet/Physical-Parameters/reedStiffness \$0-clarinet/Physical-Parameters/reedStiffness empty 0 -6 0 10 -262144 -1 -1 256;
#X obj 10 210 hsl 128 15 0 2 0 0 \$0-clarinet/Vibrato-Parameters/vibratoAttack \$0-clarinet/Vibrato-Parameters/vibratoAttack vibratoAttack -2 -6 0 10 -262144 -1 -1 0 1;
#X obj 160 210 nbx 5 14 0 2 0 0 \$0-clarinet/Vibrato-Parameters/vibratoAttack \$0-clarinet/Vibrato-Parameters/vibratoAttack empty 0 -6 0 10 -262144 -1 -1 256;
#X obj 10 240 hsl 128 15 1 15 0 0 \$0-clarinet/Vibrato-Parameters/vibratoFreq \$0-clarinet/Vibrato-Parameters/vibratoFreq vibratoFreq -2 -6 0 10 -262144 -1 -1 0 1;
#X obj 160 240 nbx 5 14 1 15 0 0 \$0-clarinet/Vibrato-Parameters/vibratoFreq \$0-clarinet/Vibrato-Parameters/vibratoFreq empty 0 -6 0 10 -262144 -1 -1 256;
#X obj 10 270 hsl 128 15 0 1 0 0 \$0-clarinet/Vibrato-Parameters/vibratoGain \$0-clarinet/Vibrato-Parameters/vibratoGain vibratoGain -2 -6 0 10 -262144 -1 -1 0 1;
#X obj 160 270 nbx 5 14 0 1 0 0 \$0-clarinet/Vibrato-Parameters/vibratoGain \$0-clarinet/Vibrato-Parameters/vibratoGain empty 0 -6 0 10 -262144 -1 -1 256;
#X obj 10 300 hsl 128 15 0 2 0 0 \$0-clarinet/Vibrato-Parameters/vibratoRelease \$0-clarinet/Vibrato-Parameters/vibratoRelease vibratoRelease -2 -6 0 10 -262144 -1 -1 0 1;
#X obj 160 300 nbx 5 14 0 2 0 0 \$0-clarinet/Vibrato-Parameters/vibratoRelease \$0-clarinet/Vibrato-Parameters/vibratoRelease empty 0 -6 0 10 -262144 -1 -1 256;
#X obj 197 3 bng 15 250 50 1 \$0-init \$0-ignore empty 0 -6 0 10 -262144 -1 -1;
#X obj 217 3 tgl 15 1 \$0-active \$0-active empty 0 -6 0 10 -262144 -1 -1 1 1;
#X obj 450 10 r \$0-init;
#X obj 866 10 s \$0-all;
#X obj 1074 10 s \$0-read;
#X obj 1282 10 r \$0-write;
#X msg 450 30 1;
#X obj 450 50 s \$0-active;
#X connect 39 0 40 0;
#X obj 866 30 r \$0-active;
#X msg 866 50 active \$1;
#X connect 41 0 42 0;
#X connect 42 0 36 0;
#X obj 1282 30 route active;
#X obj 1282 50 s \$0-active;
#X connect 38 0 43 0;
#X connect 43 0 44 0;
#X msg 450 70 0.01;
#X obj 450 90 s \$0-clarinet/Envelope-Parameters/envelopeAttack;
#X connect 35 0 45 0;
#X connect 45 0 46 0;
#X obj 866 70 r \$0-clarinet/Envelope-Parameters/envelopeAttack;
#X msg 866 90 /clarinet/Envelope-Parameters/envelopeAttack \$1;
#X connect 47 0 48 0;
#X connect 48 0 36 0;
#X obj 1282 70 route /clarinet/Envelope-Parameters/envelopeAttack;
#X obj 1282 90 s \$0-clarinet/Envelope-Parameters/envelopeAttack;
#X connect 43 1 49 0;
#X connect 49 0 50 0;
#X msg 450 110 0.05;
#X obj 450 130 s \$0-clarinet/Envelope-Parameters/envelopeDecay;
#X connect 35 0 51 0;
#X connect 51 0 52 0;
#X obj 866 110 r \$0-clarinet/Envelope-Parameters/envelopeDecay;
#X msg 866 130 /clarinet/Envelope-Parameters/envelopeDecay \$1;
#X connect 53 0 54 0;
#X connect 54 0 36 0;
#X obj 1282 110 route /clarinet/Envelope-Parameters/envelopeDecay;
#X obj 1282 130 s \$0-clarinet/Envelope-Parameters/envelopeDecay;
#X connect 49 1 55 0;
#X connect 55 0 56 0;
#X msg 450 150 0.1;
#X obj 450 170 s \$0-clarinet/Envelope-Parameters/envelopeRelease;
#X connect 35 0 57 0;
#X connect 57 0 58 0;
#X obj 866 150 r \$0-clarinet/Envelope-Parameters/envelopeRelease;
#X msg 866 170 /clarinet/Envelope-Parameters/envelopeRelease \$1;
#X connect 59 0 60 0;
#X connect 60 0 36 0;
#X obj 1282 150 route /clarinet/Envelope-Parameters/envelopeRelease;
#X obj 1282 170 s \$0-clarinet/Envelope-Parameters/envelopeRelease;
#X connect 55 1 61 0;
#X connect 61 0 62 0;
#X msg 450 190 0;
#X obj 450 210 s \$0-clarinet/Physical-Parameters/noiseGain;
#X connect 35 0 63 0;
#X connect 63 0 64 0;
#X obj 866 190 r \$0-clarinet/Physical-Parameters/noiseGain;
#X msg 866 210 /clarinet/Physical-Parameters/noiseGain \$1;
#X connect 65 0 66 0;
#X connect 66 0 36 0;
#X obj 1282 190 route /clarinet/Physical-Parameters/noiseGain;
#X obj 1282 210 s \$0-clarinet/Physical-Parameters/noiseGain;
#X connect 61 1 67 0;
#X connect 67 0 68 0;
#X msg 450 230 1;
#X obj 450 250 s \$0-clarinet/Physical-Parameters/pressure;
#X connect 35 0 69 0;
#X connect 69 0 70 0;
#X obj 866 230 r \$0-clarinet/Physical-Parameters/pressure;
#X msg 866 250 /clarinet/Physical-Parameters/pressure \$1;
#X connect 71 0 72 0;
#X connect 72 0 36 0;
#X obj 1282 230 route /clarinet/Physical-Parameters/pressure;
#X obj 1282 250 s \$0-clarinet/Physical-Parameters/pressure;
#X connect 67 1 73 0;
#X connect 73 0 74 0;
#X msg 450 270 0.5;
#X obj 450 290 s \$0-clarinet/Physical-Parameters/reedStiffness;
#X connect 35 0 75 0;
#X connect 75 0 76 0;
#X obj 866 270 r \$0-clarinet/Physical-Parameters/reedStiffness;
#X msg 866 290 /clarinet/Physical-Parameters/reedStiffness \$1;
#X connect 77 0 78 0;
#X connect 78 0 36 0;
#X obj 1282 270 route /clarinet/Physical-Parameters/reedStiffness;
#X obj 1282 290 s \$0-clarinet/Physical-Parameters/reedStiffness;
#X connect 73 1 79 0;
#X connect 79 0 80 0;
#X msg 450 310 0.5;
#X obj 450 330 s \$0-clarinet/Vibrato-Parameters/vibratoAttack;
#X connect 35 0 81 0;
#X connect 81 0 82 0;
#X obj 866 310 r \$0-clarinet/Vibrato-Parameters/vibratoAttack;
#X msg 866 330 /clarinet/Vibrato-Parameters/vibratoAttack \$1;
#X connect 83 0 84 0;
#X connect 84 0 36 0;
#X obj 1282 310 route /clarinet/Vibrato-Parameters/vibratoAttack;
#X obj 1282 330 s \$0-clarinet/Vibrato-Parameters/vibratoAttack;
#X connect 79 1 85 0;
#X connect 85 0 86 0;
#X msg 450 350 5;
#X obj 450 370 s \$0-clarinet/Vibrato-Parameters/vibratoFreq;
#X connect 35 0 87 0;
#X connect 87 0 88 0;
#X obj 866 350 r \$0-clarinet/Vibrato-Parameters/vibratoFreq;
#X msg 866 370 /clarinet/Vibrato-Parameters/vibratoFreq \$1;
#X connect 89 0 90 0;
#X connect 90 0 36 0;
#X obj 1282 350 route /clarinet/Vibrato-Parameters/vibratoFreq;
#X obj 1282 370 s \$0-clarinet/Vibrato-Parameters/vibratoFreq;
#X connect 85 1 91 0;
#X connect 91 0 92 0;
#X msg 450 390 0.1;
#X obj 450 410 s \$0-clarinet/Vibrato-Parameters/vibratoGain;
#X connect 35 0 93 0;
#X connect 93 0 94 0;
#X obj 866 390 r \$0-clarinet/Vibrato-Parameters/vibratoGain;
#X msg 866 410 /clarinet/Vibrato-Parameters/vibratoGain \$1;
#X connect 95 0 96 0;
#X connect 96 0 36 0;
#X obj 1282 390 route /clarinet/Vibrato-Parameters/vibratoGain;
#X obj 1282 410 s \$0-clarinet/Vibrato-Parameters/vibratoGain;
#X connect 91 1 97 0;
#X connect 97 0 98 0;
#X msg 450 430 0.01;
#X obj 450 450 s \$0-clarinet/Vibrato-Parameters/vibratoRelease;
#X connect 35 0 99 0;
#X connect 99 0 100 0;
#X obj 866 430 r \$0-clarinet/Vibrato-Parameters/vibratoRelease;
#X msg 866 450 /clarinet/Vibrato-Parameters/vibratoRelease \$1;
#X connect 101 0 102 0;
#X connect 102 0 36 0;
#X obj 1282 430 route /clarinet/Vibrato-Parameters/vibratoRelease;
#X obj 1282 450 s \$0-clarinet/Vibrato-Parameters/vibratoRelease;
#X connect 97 1 103 0;
#X connect 103 0 104 0;
#X coords 0 -1 1 1 235 320 1 0 0;
#X text 0 340 Generated Wed Feb  9 17:36:12 2011 by faust2pd v2.2. See http://faust.grame.fr and http://pure-lang.googlecode.com.;
