#N canvas 68 110 1305 496 10;
#X obj 438 427 dac~;
#X obj 506 20 midi-in;
#X msg 74 384 \; pd dsp 1;
#X msg 74 422 \; pd dsp 0;
#X obj 17 203 tibetanBowl;
#X obj 258 203 tunedBar;
#X obj 504 203 uniBar;
#X obj 745 202 glassHarmonica;
#X obj 986 184 modalBar;
#X connect 1 0 4 0;
#X connect 1 0 5 0;
#X connect 1 0 6 0;
#X connect 1 0 7 0;
#X connect 1 0 8 0;
#X connect 1 1 4 1;
#X connect 1 1 5 1;
#X connect 1 1 6 1;
#X connect 1 1 7 1;
#X connect 1 1 8 1;
#X connect 4 1 0 0;
#X connect 4 2 0 1;
#X connect 5 1 0 0;
#X connect 5 2 0 1;
#X connect 6 1 0 0;
#X connect 6 2 0 1;
#X connect 7 1 0 0;
#X connect 7 2 0 1;
#X connect 8 1 0 0;
#X connect 8 2 0 1;
