#N canvas 189 74 1149 669 10;
#X obj 379 586 dac~;
#X obj 268 23 midi-in;
#X msg -10 524 \; pd dsp 1;
#X msg -10 562 \; pd dsp 0;
#X obj -2 149 blowBotle;
#X obj 251 148 bowed;
#X obj 500 151 saxophony;
#X obj 746 123 voiceForm;
#X connect 1 0 4 0;
#X connect 1 0 5 0;
#X connect 1 0 6 0;
#X connect 1 0 7 0;
#X connect 1 1 4 1;
#X connect 1 1 5 1;
#X connect 1 1 6 1;
#X connect 1 1 7 1;
#X connect 4 1 0 0;
#X connect 4 2 0 1;
#X connect 5 1 0 0;
#X connect 5 2 0 1;
#X connect 6 1 0 0;
#X connect 6 2 0 1;
#X connect 7 1 0 0;
#X connect 7 2 0 1;
