#N canvas 0 0 450 300 10;
#X obj 10 240 inlet;
#X obj 130 240 inlet;
#X obj 190 240 r \$0-read;
#X obj 130 270 r \$0-all;
#X obj 190 270 faust-control \$0;
#X obj 190 300 s \$0-write;
#X obj 130 300 r \$0-in;
#X obj 130 360 s \$0-out;
#X obj 10 330 faust-gate 1;
#X obj 130 330 modalBar~;
#X obj 130 390 outlet~;
#X obj 190 390 outlet~;
#X obj 10 390 outlet;
#X connect 1 0 4 0;
#X connect 2 0 4 0;
#X connect 4 0 5 0;
#X connect 1 0 12 0;
#X connect 6 0 9 0;
#X connect 9 0 7 0;
#X connect 0 0 8 0;
#X connect 8 0 9 0;
#X connect 3 0 9 0;
#X connect 9 1 10 0;
#X connect 9 2 11 0;
#X obj 10 30 hsl 128 15 1 15 0 0 \$0-modalBar/Envelope-Parameters/vibratoFreq \$0-modalBar/Envelope-Parameters/vibratoFreq vibratoFreq -2 -6 0 10 -262144 -1 -1 0 1;
#X obj 160 30 nbx 5 14 1 15 0 0 \$0-modalBar/Envelope-Parameters/vibratoFreq \$0-modalBar/Envelope-Parameters/vibratoFreq empty 0 -6 0 10 -262144 -1 -1 256;
#X obj 10 60 hsl 128 15 0 1 0 0 \$0-modalBar/Envelope-Parameters/vibratoGain \$0-modalBar/Envelope-Parameters/vibratoGain vibratoGain -2 -6 0 10 -262144 -1 -1 0 1;
#X obj 160 60 nbx 5 14 0 1 0 0 \$0-modalBar/Envelope-Parameters/vibratoGain \$0-modalBar/Envelope-Parameters/vibratoGain empty 0 -6 0 10 -262144 -1 -1 256;
#X obj 10 90 nbx 5 14 0 8 0 0 \$0-modalBar/Physical-Parameters/preset \$0-modalBar/Physical-Parameters/preset preset 0 -6 0 10 -262144 -1 -1 256;
#X obj 10 120 nbx 5 14 0 1 0 0 \$0-modalBar/Physical-Parameters/reson \$0-modalBar/Physical-Parameters/reson reson 0 -6 0 10 -262144 -1 -1 256;
#X obj 10 150 hsl 128 15 0 1 0 0 \$0-modalBar/Physical-Parameters/stickHardness \$0-modalBar/Physical-Parameters/stickHardness stickHardness -2 -6 0 10 -262144 -1 -1 0 1;
#X obj 160 150 nbx 5 14 0 1 0 0 \$0-modalBar/Physical-Parameters/stickHardness \$0-modalBar/Physical-Parameters/stickHardness empty 0 -6 0 10 -262144 -1 -1 256;
#X obj 197 3 bng 15 250 50 1 \$0-init \$0-ignore empty 0 -6 0 10 -262144 -1 -1;
#X obj 217 3 tgl 15 1 \$0-active \$0-active empty 0 -6 0 10 -262144 -1 -1 1 1;
#X obj 450 10 r \$0-init;
#X obj 850 10 s \$0-all;
#X obj 1050 10 s \$0-read;
#X obj 1250 10 r \$0-write;
#X msg 450 30 1;
#X obj 450 50 s \$0-active;
#X connect 27 0 28 0;
#X obj 850 30 r \$0-active;
#X msg 850 50 active \$1;
#X connect 29 0 30 0;
#X connect 30 0 24 0;
#X obj 1250 30 route active;
#X obj 1250 50 s \$0-active;
#X connect 26 0 31 0;
#X connect 31 0 32 0;
#X msg 450 70 6;
#X obj 450 90 s \$0-modalBar/Envelope-Parameters/vibratoFreq;
#X connect 23 0 33 0;
#X connect 33 0 34 0;
#X obj 850 70 r \$0-modalBar/Envelope-Parameters/vibratoFreq;
#X msg 850 90 /modalBar/Envelope-Parameters/vibratoFreq \$1;
#X connect 35 0 36 0;
#X connect 36 0 24 0;
#X obj 1250 70 route /modalBar/Envelope-Parameters/vibratoFreq;
#X obj 1250 90 s \$0-modalBar/Envelope-Parameters/vibratoFreq;
#X connect 31 1 37 0;
#X connect 37 0 38 0;
#X msg 450 110 0.1;
#X obj 450 130 s \$0-modalBar/Envelope-Parameters/vibratoGain;
#X connect 23 0 39 0;
#X connect 39 0 40 0;
#X obj 850 110 r \$0-modalBar/Envelope-Parameters/vibratoGain;
#X msg 850 130 /modalBar/Envelope-Parameters/vibratoGain \$1;
#X connect 41 0 42 0;
#X connect 42 0 24 0;
#X obj 1250 110 route /modalBar/Envelope-Parameters/vibratoGain;
#X obj 1250 130 s \$0-modalBar/Envelope-Parameters/vibratoGain;
#X connect 37 1 43 0;
#X connect 43 0 44 0;
#X msg 450 150 1;
#X obj 450 170 s \$0-modalBar/Physical-Parameters/preset;
#X connect 23 0 45 0;
#X connect 45 0 46 0;
#X obj 850 150 r \$0-modalBar/Physical-Parameters/preset;
#X msg 850 170 /modalBar/Physical-Parameters/preset \$1;
#X connect 47 0 48 0;
#X connect 48 0 24 0;
#X obj 1250 150 route /modalBar/Physical-Parameters/preset;
#X obj 1250 170 s \$0-modalBar/Physical-Parameters/preset;
#X connect 43 1 49 0;
#X connect 49 0 50 0;
#X msg 450 190 1;
#X obj 450 210 s \$0-modalBar/Physical-Parameters/reson;
#X connect 23 0 51 0;
#X connect 51 0 52 0;
#X obj 850 190 r \$0-modalBar/Physical-Parameters/reson;
#X msg 850 210 /modalBar/Physical-Parameters/reson \$1;
#X connect 53 0 54 0;
#X connect 54 0 24 0;
#X obj 1250 190 route /modalBar/Physical-Parameters/reson;
#X obj 1250 210 s \$0-modalBar/Physical-Parameters/reson;
#X connect 49 1 55 0;
#X connect 55 0 56 0;
#X msg 450 230 0.25;
#X obj 450 250 s \$0-modalBar/Physical-Parameters/stickHardness;
#X connect 23 0 57 0;
#X connect 57 0 58 0;
#X obj 850 230 r \$0-modalBar/Physical-Parameters/stickHardness;
#X msg 850 250 /modalBar/Physical-Parameters/stickHardness \$1;
#X connect 59 0 60 0;
#X connect 60 0 24 0;
#X obj 1250 230 route /modalBar/Physical-Parameters/stickHardness;
#X obj 1250 250 s \$0-modalBar/Physical-Parameters/stickHardness;
#X connect 55 1 61 0;
#X connect 61 0 62 0;
#X coords 0 -1 1 1 235 170 1 0 0;
#X text 0 190 Generated Wed Feb  9 22:41:39 2011 by faust2pd v2.2. See http://faust.grame.fr and http://pure-lang.googlecode.com.;
