#N canvas 0 0 450 300 10;
#X obj 10 330 inlet;
#X obj 130 330 inlet;
#X obj 190 330 r \$0-read;
#X obj 130 360 r \$0-all;
#X obj 190 360 faust-control \$0;
#X obj 190 390 s \$0-write;
#X obj 130 390 r \$0-in;
#X obj 130 450 s \$0-out;
#X obj 10 420 faust-gate 1;
#X obj 130 420 saxophony~;
#X obj 130 480 outlet~;
#X obj 190 480 outlet~;
#X obj 10 480 outlet;
#X connect 1 0 4 0;
#X connect 2 0 4 0;
#X connect 4 0 5 0;
#X connect 1 0 12 0;
#X connect 6 0 9 0;
#X connect 9 0 7 0;
#X connect 0 0 8 0;
#X connect 8 0 9 0;
#X connect 3 0 9 0;
#X connect 9 1 10 0;
#X connect 9 2 11 0;
#X obj 10 30 hsl 128 15 0 2 0 0 \$0-saxophony/Envelope-Parameters/envelopeAttack \$0-saxophony/Envelope-Parameters/envelopeAttack envelopeAttack -2 -6 0 10 -262144 -1 -1 0 1;
#X obj 160 30 nbx 5 14 0 2 0 0 \$0-saxophony/Envelope-Parameters/envelopeAttack \$0-saxophony/Envelope-Parameters/envelopeAttack empty 0 -6 0 10 -262144 -1 -1 256;
#X obj 10 60 hsl 128 15 0 2 0 0 \$0-saxophony/Envelope-Parameters/envelopeRelease \$0-saxophony/Envelope-Parameters/envelopeRelease envelopeRelease -2 -6 0 10 -262144 -1 -1 0 1;
#X obj 160 60 nbx 5 14 0 2 0 0 \$0-saxophony/Envelope-Parameters/envelopeRelease \$0-saxophony/Envelope-Parameters/envelopeRelease empty 0 -6 0 10 -262144 -1 -1 256;
#X obj 10 90 hsl 128 15 0 1 0 0 \$0-saxophony/Physical-Parameters/blowPosition \$0-saxophony/Physical-Parameters/blowPosition blowPosition -2 -6 0 10 -262144 -1 -1 0 1;
#X obj 160 90 nbx 5 14 0 1 0 0 \$0-saxophony/Physical-Parameters/blowPosition \$0-saxophony/Physical-Parameters/blowPosition empty 0 -6 0 10 -262144 -1 -1 256;
#X obj 10 120 hsl 128 15 0 1 0 0 \$0-saxophony/Physical-Parameters/noiseGain \$0-saxophony/Physical-Parameters/noiseGain noiseGain -2 -6 0 10 -262144 -1 -1 0 1;
#X obj 160 120 nbx 5 14 0 1 0 0 \$0-saxophony/Physical-Parameters/noiseGain \$0-saxophony/Physical-Parameters/noiseGain empty 0 -6 0 10 -262144 -1 -1 256;
#X obj 10 150 hsl 128 15 0 1 0 0 \$0-saxophony/Physical-Parameters/pressure \$0-saxophony/Physical-Parameters/pressure pressure -2 -6 0 10 -262144 -1 -1 0 1;
#X obj 160 150 nbx 5 14 0 1 0 0 \$0-saxophony/Physical-Parameters/pressure \$0-saxophony/Physical-Parameters/pressure empty 0 -6 0 10 -262144 -1 -1 256;
#X obj 10 180 hsl 128 15 0 1 0 0 \$0-saxophony/Physical-Parameters/reedStiffness \$0-saxophony/Physical-Parameters/reedStiffness reedStiffness -2 -6 0 10 -262144 -1 -1 0 1;
#X obj 160 180 nbx 5 14 0 1 0 0 \$0-saxophony/Physical-Parameters/reedStiffness \$0-saxophony/Physical-Parameters/reedStiffness empty 0 -6 0 10 -262144 -1 -1 256;
#X obj 10 210 hsl 128 15 1 15 0 0 \$0-saxophony/Vibrato-Parameters/vibratoFreq \$0-saxophony/Vibrato-Parameters/vibratoFreq vibratoFreq -2 -6 0 10 -262144 -1 -1 0 1;
#X obj 160 210 nbx 5 14 1 15 0 0 \$0-saxophony/Vibrato-Parameters/vibratoFreq \$0-saxophony/Vibrato-Parameters/vibratoFreq empty 0 -6 0 10 -262144 -1 -1 256;
#X obj 10 240 hsl 128 15 0 1 0 0 \$0-saxophony/Vibrato-Parameters/vibratoGain \$0-saxophony/Vibrato-Parameters/vibratoGain vibratoGain -2 -6 0 10 -262144 -1 -1 0 1;
#X obj 160 240 nbx 5 14 0 1 0 0 \$0-saxophony/Vibrato-Parameters/vibratoGain \$0-saxophony/Vibrato-Parameters/vibratoGain empty 0 -6 0 10 -262144 -1 -1 256;
#X obj 197 3 bng 15 250 50 1 \$0-init \$0-ignore empty 0 -6 0 10 -262144 -1 -1;
#X obj 217 3 tgl 15 1 \$0-active \$0-active empty 0 -6 0 10 -262144 -1 -1 1 1;
#X obj 450 10 r \$0-init;
#X obj 874 10 s \$0-all;
#X obj 1086 10 s \$0-read;
#X obj 1298 10 r \$0-write;
#X msg 450 30 1;
#X obj 450 50 s \$0-active;
#X connect 35 0 36 0;
#X obj 874 30 r \$0-active;
#X msg 874 50 active \$1;
#X connect 37 0 38 0;
#X connect 38 0 32 0;
#X obj 1298 30 route active;
#X obj 1298 50 s \$0-active;
#X connect 34 0 39 0;
#X connect 39 0 40 0;
#X msg 450 70 0.05;
#X obj 450 90 s \$0-saxophony/Envelope-Parameters/envelopeAttack;
#X connect 31 0 41 0;
#X connect 41 0 42 0;
#X obj 874 70 r \$0-saxophony/Envelope-Parameters/envelopeAttack;
#X msg 874 90 /saxophony/Envelope-Parameters/envelopeAttack \$1;
#X connect 43 0 44 0;
#X connect 44 0 32 0;
#X obj 1298 70 route /saxophony/Envelope-Parameters/envelopeAttack;
#X obj 1298 90 s \$0-saxophony/Envelope-Parameters/envelopeAttack;
#X connect 39 1 45 0;
#X connect 45 0 46 0;
#X msg 450 110 0.01;
#X obj 450 130 s \$0-saxophony/Envelope-Parameters/envelopeRelease;
#X connect 31 0 47 0;
#X connect 47 0 48 0;
#X obj 874 110 r \$0-saxophony/Envelope-Parameters/envelopeRelease;
#X msg 874 130 /saxophony/Envelope-Parameters/envelopeRelease \$1;
#X connect 49 0 50 0;
#X connect 50 0 32 0;
#X obj 1298 110 route /saxophony/Envelope-Parameters/envelopeRelease;
#X obj 1298 130 s \$0-saxophony/Envelope-Parameters/envelopeRelease;
#X connect 45 1 51 0;
#X connect 51 0 52 0;
#X msg 450 150 0.5;
#X obj 450 170 s \$0-saxophony/Physical-Parameters/blowPosition;
#X connect 31 0 53 0;
#X connect 53 0 54 0;
#X obj 874 150 r \$0-saxophony/Physical-Parameters/blowPosition;
#X msg 874 170 /saxophony/Physical-Parameters/blowPosition \$1;
#X connect 55 0 56 0;
#X connect 56 0 32 0;
#X obj 1298 150 route /saxophony/Physical-Parameters/blowPosition;
#X obj 1298 170 s \$0-saxophony/Physical-Parameters/blowPosition;
#X connect 51 1 57 0;
#X connect 57 0 58 0;
#X msg 450 190 0.05;
#X obj 450 210 s \$0-saxophony/Physical-Parameters/noiseGain;
#X connect 31 0 59 0;
#X connect 59 0 60 0;
#X obj 874 190 r \$0-saxophony/Physical-Parameters/noiseGain;
#X msg 874 210 /saxophony/Physical-Parameters/noiseGain \$1;
#X connect 61 0 62 0;
#X connect 62 0 32 0;
#X obj 1298 190 route /saxophony/Physical-Parameters/noiseGain;
#X obj 1298 210 s \$0-saxophony/Physical-Parameters/noiseGain;
#X connect 57 1 63 0;
#X connect 63 0 64 0;
#X msg 450 230 1;
#X obj 450 250 s \$0-saxophony/Physical-Parameters/pressure;
#X connect 31 0 65 0;
#X connect 65 0 66 0;
#X obj 874 230 r \$0-saxophony/Physical-Parameters/pressure;
#X msg 874 250 /saxophony/Physical-Parameters/pressure \$1;
#X connect 67 0 68 0;
#X connect 68 0 32 0;
#X obj 1298 230 route /saxophony/Physical-Parameters/pressure;
#X obj 1298 250 s \$0-saxophony/Physical-Parameters/pressure;
#X connect 63 1 69 0;
#X connect 69 0 70 0;
#X msg 450 270 0.3;
#X obj 450 290 s \$0-saxophony/Physical-Parameters/reedStiffness;
#X connect 31 0 71 0;
#X connect 71 0 72 0;
#X obj 874 270 r \$0-saxophony/Physical-Parameters/reedStiffness;
#X msg 874 290 /saxophony/Physical-Parameters/reedStiffness \$1;
#X connect 73 0 74 0;
#X connect 74 0 32 0;
#X obj 1298 270 route /saxophony/Physical-Parameters/reedStiffness;
#X obj 1298 290 s \$0-saxophony/Physical-Parameters/reedStiffness;
#X connect 69 1 75 0;
#X connect 75 0 76 0;
#X msg 450 310 6;
#X obj 450 330 s \$0-saxophony/Vibrato-Parameters/vibratoFreq;
#X connect 31 0 77 0;
#X connect 77 0 78 0;
#X obj 874 310 r \$0-saxophony/Vibrato-Parameters/vibratoFreq;
#X msg 874 330 /saxophony/Vibrato-Parameters/vibratoFreq \$1;
#X connect 79 0 80 0;
#X connect 80 0 32 0;
#X obj 1298 310 route /saxophony/Vibrato-Parameters/vibratoFreq;
#X obj 1298 330 s \$0-saxophony/Vibrato-Parameters/vibratoFreq;
#X connect 75 1 81 0;
#X connect 81 0 82 0;
#X msg 450 350 0.1;
#X obj 450 370 s \$0-saxophony/Vibrato-Parameters/vibratoGain;
#X connect 31 0 83 0;
#X connect 83 0 84 0;
#X obj 874 350 r \$0-saxophony/Vibrato-Parameters/vibratoGain;
#X msg 874 370 /saxophony/Vibrato-Parameters/vibratoGain \$1;
#X connect 85 0 86 0;
#X connect 86 0 32 0;
#X obj 1298 350 route /saxophony/Vibrato-Parameters/vibratoGain;
#X obj 1298 370 s \$0-saxophony/Vibrato-Parameters/vibratoGain;
#X connect 81 1 87 0;
#X connect 87 0 88 0;
#X coords 0 -1 1 1 235 260 1 0 0;
#X text 0 280 Generated Wed Feb  9 11:52:06 2011 by faust2pd v2.2. See http://faust.grame.fr and http://pure-lang.googlecode.com.;
