#N canvas 0 0 450 300 10;
#X obj 10 210 inlet;
#X obj 130 210 inlet;
#X obj 190 210 r \$0-read;
#X obj 130 240 r \$0-all;
#X obj 190 240 faust-control \$0;
#X obj 190 270 s \$0-write;
#X obj 130 270 r \$0-in;
#X obj 130 330 s \$0-out;
#X obj 10 300 faust-gate 1;
#X obj 130 300 tunedBar~;
#X obj 130 360 outlet~;
#X obj 190 360 outlet~;
#X obj 10 360 outlet;
#X connect 1 0 4 0;
#X connect 2 0 4 0;
#X connect 4 0 5 0;
#X connect 1 0 12 0;
#X connect 6 0 9 0;
#X connect 9 0 7 0;
#X connect 0 0 8 0;
#X connect 8 0 9 0;
#X connect 3 0 9 0;
#X connect 9 1 10 0;
#X connect 9 2 11 0;
#X obj 10 30 hsl 128 15 0 1 0 0 \$0-tunedBar/Physical-Parameters/baseGain \$0-tunedBar/Physical-Parameters/baseGain baseGain -2 -6 0 10 -262144 -1 -1 0 1;
#X obj 160 30 nbx 5 14 0 1 0 0 \$0-tunedBar/Physical-Parameters/baseGain \$0-tunedBar/Physical-Parameters/baseGain empty 0 -6 0 10 -262144 -1 -1 256;
#X obj 10 60 hsl 128 15 0 1 0 0 \$0-tunedBar/Physical-Parameters/bowPressure \$0-tunedBar/Physical-Parameters/bowPressure bowPressure -2 -6 0 10 -262144 -1 -1 0 1;
#X obj 160 60 nbx 5 14 0 1 0 0 \$0-tunedBar/Physical-Parameters/bowPressure \$0-tunedBar/Physical-Parameters/bowPressure empty 0 -6 0 10 -262144 -1 -1 256;
#X obj 10 90 hsl 128 15 0 1 0 0 \$0-tunedBar/Physical-Parameters/integrationConstant \$0-tunedBar/Physical-Parameters/integrationConstant integrationConstant -2 -6 0 10 -262144 -1 -1 0 1;
#X obj 160 90 nbx 5 14 0 1 0 0 \$0-tunedBar/Physical-Parameters/integrationConstant \$0-tunedBar/Physical-Parameters/integrationConstant empty 0 -6 0 10 -262144 -1 -1 256;
#X obj 10 120 nbx 5 14 0 1 0 0 \$0-tunedBar/Physical-Parameters/selector \$0-tunedBar/Physical-Parameters/selector selector 0 -6 0 10 -262144 -1 -1 256;
#X obj 197 3 bng 15 250 50 1 \$0-init \$0-ignore empty 0 -6 0 10 -262144 -1 -1;
#X obj 217 3 tgl 15 1 \$0-active \$0-active empty 0 -6 0 10 -262144 -1 -1 1 1;
#X obj 450 10 r \$0-init;
#X obj 898 10 s \$0-all;
#X obj 1122 10 s \$0-read;
#X obj 1346 10 r \$0-write;
#X msg 450 30 1;
#X obj 450 50 s \$0-active;
#X connect 26 0 27 0;
#X obj 898 30 r \$0-active;
#X msg 898 50 active \$1;
#X connect 28 0 29 0;
#X connect 29 0 23 0;
#X obj 1346 30 route active;
#X obj 1346 50 s \$0-active;
#X connect 25 0 30 0;
#X connect 30 0 31 0;
#X msg 450 70 1;
#X obj 450 90 s \$0-tunedBar/Physical-Parameters/baseGain;
#X connect 22 0 32 0;
#X connect 32 0 33 0;
#X obj 898 70 r \$0-tunedBar/Physical-Parameters/baseGain;
#X msg 898 90 /tunedBar/Physical-Parameters/baseGain \$1;
#X connect 34 0 35 0;
#X connect 35 0 23 0;
#X obj 1346 70 route /tunedBar/Physical-Parameters/baseGain;
#X obj 1346 90 s \$0-tunedBar/Physical-Parameters/baseGain;
#X connect 30 1 36 0;
#X connect 36 0 37 0;
#X msg 450 110 0.2;
#X obj 450 130 s \$0-tunedBar/Physical-Parameters/bowPressure;
#X connect 22 0 38 0;
#X connect 38 0 39 0;
#X obj 898 110 r \$0-tunedBar/Physical-Parameters/bowPressure;
#X msg 898 130 /tunedBar/Physical-Parameters/bowPressure \$1;
#X connect 40 0 41 0;
#X connect 41 0 23 0;
#X obj 1346 110 route /tunedBar/Physical-Parameters/bowPressure;
#X obj 1346 130 s \$0-tunedBar/Physical-Parameters/bowPressure;
#X connect 36 1 42 0;
#X connect 42 0 43 0;
#X msg 450 150 0;
#X obj 450 170 s \$0-tunedBar/Physical-Parameters/integrationConstant;
#X connect 22 0 44 0;
#X connect 44 0 45 0;
#X obj 898 150 r \$0-tunedBar/Physical-Parameters/integrationConstant;
#X msg 898 170 /tunedBar/Physical-Parameters/integrationConstant \$1;
#X connect 46 0 47 0;
#X connect 47 0 23 0;
#X obj 1346 150 route /tunedBar/Physical-Parameters/integrationConstant;
#X obj 1346 170 s \$0-tunedBar/Physical-Parameters/integrationConstant;
#X connect 42 1 48 0;
#X connect 48 0 49 0;
#X msg 450 190 0;
#X obj 450 210 s \$0-tunedBar/Physical-Parameters/selector;
#X connect 22 0 50 0;
#X connect 50 0 51 0;
#X obj 898 190 r \$0-tunedBar/Physical-Parameters/selector;
#X msg 898 210 /tunedBar/Physical-Parameters/selector \$1;
#X connect 52 0 53 0;
#X connect 53 0 23 0;
#X obj 1346 190 route /tunedBar/Physical-Parameters/selector;
#X obj 1346 210 s \$0-tunedBar/Physical-Parameters/selector;
#X connect 48 1 54 0;
#X connect 54 0 55 0;
#X coords 0 -1 1 1 235 140 1 0 0;
#X text 0 160 Generated Wed Feb  9 12:00:57 2011 by faust2pd v2.2. See http://faust.grame.fr and http://pure-lang.googlecode.com.;
