#N canvas 799 72 302 299 12;
#X obj 91 197 dac~;
#X obj 24 179 metro 100;
#X obj 24 213 env~;
#X floatatom 24 245 5 0 0 0 - - -;
#N canvas 410 210 599 330 gestureDatas 0;
#X obj 154 182 textfile;
#X msg 23 98 read pitch.txt;
#X msg 154 209 freq \$1;
#X obj 220 183 textfile;
#X msg 220 209 bowPosition \$1;
#X obj 319 183 textfile;
#X msg 319 209 bowVel \$1;
#X msg 23 123 read bow_vel.txt;
#X msg 130 121 read force_newtons.txt;
#X obj 393 183 textfile;
#X msg 393 209 force \$1;
#X obj 325 62 metro 4.167;
#X msg 22 147 read string.txt;
#X obj 464 184 textfile;
#X msg 464 208 stringNumber \$1;
#X obj 313 283 outlet;
#X obj 82 10 inlet;
#X obj 191 10 inlet;
#X obj 325 39 inlet;
#X msg 119 98 read beta3.txt;
#X connect 0 0 2 0;
#X connect 1 0 0 0;
#X connect 2 0 15 0;
#X connect 3 0 4 0;
#X connect 4 0 15 0;
#X connect 5 0 6 0;
#X connect 6 0 15 0;
#X connect 7 0 5 0;
#X connect 8 0 9 0;
#X connect 9 0 10 0;
#X connect 10 0 15 0;
#X connect 11 0 0 0;
#X connect 11 0 3 0;
#X connect 11 0 5 0;
#X connect 11 0 9 0;
#X connect 11 0 13 0;
#X connect 12 0 13 0;
#X connect 13 0 14 0;
#X connect 14 0 15 0;
#X connect 16 0 1 0;
#X connect 16 0 7 0;
#X connect 16 0 19 0;
#X connect 16 0 8 0;
#X connect 16 0 12 0;
#X connect 16 0 0 0;
#X connect 17 0 13 0;
#X connect 17 0 9 0;
#X connect 17 0 5 0;
#X connect 17 0 3 0;
#X connect 17 0 0 0;
#X connect 18 0 11 0;
#X connect 19 0 3 0;
#X restore 78 106 pd gestureDatas;
#X msg 189 81 bang;
#X msg 121 79 rewind;
#X msg 228 81 stop;
#X obj 78 62 bng 15 250 50 0 empty empty empty 17 7 0 10 -262144 -1
-1;
#X text 190 61 play;
#X obj 78 34 loadbang;
#X obj 79 133 violin~;
#X connect 1 0 2 0;
#X connect 2 0 3 0;
#X connect 4 0 11 0;
#X connect 5 0 4 2;
#X connect 6 0 4 1;
#X connect 7 0 4 2;
#X connect 8 0 4 0;
#X connect 8 0 6 0;
#X connect 10 0 8 0;
#X connect 11 1 2 0;
#X connect 11 1 0 0;
#X connect 11 2 0 1;
