#N canvas 912 183 485 566 10;
#X obj 78 133 violin~;
#X obj 154 130 metro 100;
#X obj 154 164 env~;
#X floatatom 166 200 5 0 0 0 - - -;
#X msg 254 73 bang;
#X msg 186 71 rewind;
#X msg 293 73 stop;
#X obj 78 62 bng 15 250 50 0 empty empty empty 17 7 0 10 -262144 -1
-1;
#X text 255 53 play;
#X obj 78 34 loadbang;
#X text 172 26 comment;
#X obj 331 159 writesf~;
#X msg 368 133 start;
#X msg 421 133 stop;
#X msg 332 110 open -wave tst.wav;
#X obj 2 367 audio-out;
#X obj 111 317 *~;
#X floatatom 256 218 3 -99 300 0 - - -;
#X obj 258 246 dbtorms;
#X obj 213 317 *~;
#X text 285 220 <- level in dB.;
#X obj 208 195 loadbang;
#X msg 266 197 set 90;
#N canvas 307 416 599 330 gestureDatas 1;
#X obj 154 182 textfile;
#X msg 154 209 freq \$1;
#X obj 220 183 textfile;
#X msg 139 94 read beta.txt;
#X msg 220 209 bowPosition \$1;
#X obj 319 183 textfile;
#X msg 319 209 bowVel \$1;
#X msg 23 123 read bow_vel.txt;
#X msg 130 121 read force_newtons.txt;
#X obj 393 183 textfile;
#X msg 393 209 force \$1;
#X obj 325 62 metro 4.167;
#X msg 22 147 read string.txt;
#X obj 464 184 textfile;
#X msg 464 208 stringNumber \$1;
#X obj 313 283 outlet;
#X obj 82 10 inlet;
#X obj 191 10 inlet;
#X obj 325 39 inlet;
#X msg 24 98 read \$1-pitch.txt;
#X obj 143 16 inlet;
#X obj 130 42 print;
#X connect 0 0 1 0;
#X connect 1 0 15 0;
#X connect 2 0 4 0;
#X connect 3 0 2 0;
#X connect 4 0 15 0;
#X connect 5 0 6 0;
#X connect 6 0 15 0;
#X connect 7 0 5 0;
#X connect 8 0 9 0;
#X connect 9 0 10 0;
#X connect 10 0 15 0;
#X connect 11 0 0 0;
#X connect 11 0 2 0;
#X connect 11 0 5 0;
#X connect 11 0 9 0;
#X connect 11 0 13 0;
#X connect 12 0 13 0;
#X connect 13 0 14 0;
#X connect 14 0 15 0;
#X connect 16 0 19 0;
#X connect 16 0 7 0;
#X connect 16 0 3 0;
#X connect 16 0 8 0;
#X connect 16 0 12 0;
#X connect 16 0 0 0;
#X connect 17 0 13 0;
#X connect 17 0 9 0;
#X connect 17 0 5 0;
#X connect 17 0 2 0;
#X connect 17 0 0 0;
#X connect 18 0 11 0;
#X connect 19 0 0 0;
#X connect 20 0 21 0;
#X restore 78 105 pd gestureDatas foo muneira;
#X msg 122 80 muneira;
#X connect 0 0 15 0;
#X connect 0 1 2 0;
#X connect 0 1 16 0;
#X connect 0 2 11 0;
#X connect 0 2 19 0;
#X connect 1 0 2 0;
#X connect 2 0 3 0;
#X connect 4 0 23 3;
#X connect 5 0 23 2;
#X connect 6 0 23 3;
#X connect 7 0 23 0;
#X connect 7 0 5 0;
#X connect 7 0 24 0;
#X connect 9 0 7 0;
#X connect 12 0 11 0;
#X connect 13 0 11 0;
#X connect 14 0 11 0;
#X connect 16 0 15 1;
#X connect 17 0 18 0;
#X connect 18 0 16 1;
#X connect 18 0 19 1;
#X connect 19 0 15 2;
#X connect 21 0 22 0;
#X connect 22 0 17 0;
#X connect 23 0 0 0;
#X connect 24 0 23 1;
