#N canvas 0 0 450 300 10;
#X obj 10 270 inlet;
#X obj 130 270 inlet;
#X obj 190 270 r \$0-read;
#X obj 130 300 r \$0-all;
#X obj 190 300 faust-control \$0;
#X obj 190 330 s \$0-write;
#X obj 130 330 r \$0-in;
#X obj 130 390 s \$0-out;
#X obj 10 360 faust-gate 1;
#X obj 130 360 violin~;
#X obj 130 420 outlet~;
#X obj 190 420 outlet~;
#X obj 10 420 outlet;
#X connect 1 0 4 0;
#X connect 2 0 4 0;
#X connect 4 0 5 0;
#X connect 1 0 12 0;
#X connect 6 0 9 0;
#X connect 9 0 7 0;
#X connect 0 0 8 0;
#X connect 8 0 9 0;
#X connect 3 0 9 0;
#X connect 9 1 10 0;
#X connect 9 2 11 0;
#X obj 10 30 hsl 128 15 0.01 1 0 0 \$0-violin/Physical-Parameters/bowPosition \$0-violin/Physical-Parameters/bowPosition bowPosition -2 -6 0 10 -262144 -1 -1 0 1;
#X obj 160 30 nbx 5 14 0.01 1 0 0 \$0-violin/Physical-Parameters/bowPosition \$0-violin/Physical-Parameters/bowPosition empty 0 -6 0 10 -262144 -1 -1 256;
#X obj 10 60 hsl 128 15 0 7 0 0 \$0-violin/Physical-Parameters/force \$0-violin/Physical-Parameters/force force -2 -6 0 10 -262144 -1 -1 0 1;
#X obj 160 60 nbx 5 14 0 7 0 0 \$0-violin/Physical-Parameters/force \$0-violin/Physical-Parameters/force empty 0 -6 0 10 -262144 -1 -1 256;
#X obj 10 90 hsl 128 15 1 15 0 0 \$0-violin/Vibrato-Parameters/vibratoFreq \$0-violin/Vibrato-Parameters/vibratoFreq vibratoFreq -2 -6 0 10 -262144 -1 -1 0 1;
#X obj 160 90 nbx 5 14 1 15 0 0 \$0-violin/Vibrato-Parameters/vibratoFreq \$0-violin/Vibrato-Parameters/vibratoFreq empty 0 -6 0 10 -262144 -1 -1 256;
#X obj 10 120 hsl 128 15 0 1 0 0 \$0-violin/Vibrato-Parameters/vibratoGain \$0-violin/Vibrato-Parameters/vibratoGain vibratoGain -2 -6 0 10 -262144 -1 -1 0 1;
#X obj 160 120 nbx 5 14 0 1 0 0 \$0-violin/Vibrato-Parameters/vibratoGain \$0-violin/Vibrato-Parameters/vibratoGain empty 0 -6 0 10 -262144 -1 -1 256;
#X obj 10 150 hsl 128 15 0 130 0 0 \$0-violin/bowVel \$0-violin/bowVel bowVel -2 -6 0 10 -262144 -1 -1 0 1;
#X obj 160 150 nbx 5 14 0 130 0 0 \$0-violin/bowVel \$0-violin/bowVel empty 0 -6 0 10 -262144 -1 -1 256;
#X obj 10 180 nbx 5 14 0 4 0 0 \$0-violin/stringNumber \$0-violin/stringNumber stringNumber 0 -6 0 10 -262144 -1 -1 256;
#X obj 197 3 bng 15 250 50 1 \$0-init \$0-ignore empty 0 -6 0 10 -262144 -1 -1;
#X obj 217 3 tgl 15 1 \$0-active \$0-active empty 0 -6 0 10 -262144 -1 -1 1 1;
#X obj 450 10 r \$0-init;
#X obj 818 10 s \$0-all;
#X obj 1002 10 s \$0-read;
#X obj 1186 10 r \$0-write;
#X msg 450 30 1;
#X obj 450 50 s \$0-active;
#X connect 30 0 31 0;
#X obj 818 30 r \$0-active;
#X msg 818 50 active \$1;
#X connect 32 0 33 0;
#X connect 33 0 27 0;
#X obj 1186 30 route active;
#X obj 1186 50 s \$0-active;
#X connect 29 0 34 0;
#X connect 34 0 35 0;
#X msg 450 70 0.01;
#X obj 450 90 s \$0-violin/Physical-Parameters/bowPosition;
#X connect 26 0 36 0;
#X connect 36 0 37 0;
#X obj 818 70 r \$0-violin/Physical-Parameters/bowPosition;
#X msg 818 90 /violin/Physical-Parameters/bowPosition \$1;
#X connect 38 0 39 0;
#X connect 39 0 27 0;
#X obj 1186 70 route /violin/Physical-Parameters/bowPosition;
#X obj 1186 90 s \$0-violin/Physical-Parameters/bowPosition;
#X connect 34 1 40 0;
#X connect 40 0 41 0;
#X msg 450 110 0;
#X obj 450 130 s \$0-violin/Physical-Parameters/force;
#X connect 26 0 42 0;
#X connect 42 0 43 0;
#X obj 818 110 r \$0-violin/Physical-Parameters/force;
#X msg 818 130 /violin/Physical-Parameters/force \$1;
#X connect 44 0 45 0;
#X connect 45 0 27 0;
#X obj 1186 110 route /violin/Physical-Parameters/force;
#X obj 1186 130 s \$0-violin/Physical-Parameters/force;
#X connect 40 1 46 0;
#X connect 46 0 47 0;
#X msg 450 150 6;
#X obj 450 170 s \$0-violin/Vibrato-Parameters/vibratoFreq;
#X connect 26 0 48 0;
#X connect 48 0 49 0;
#X obj 818 150 r \$0-violin/Vibrato-Parameters/vibratoFreq;
#X msg 818 170 /violin/Vibrato-Parameters/vibratoFreq \$1;
#X connect 50 0 51 0;
#X connect 51 0 27 0;
#X obj 1186 150 route /violin/Vibrato-Parameters/vibratoFreq;
#X obj 1186 170 s \$0-violin/Vibrato-Parameters/vibratoFreq;
#X connect 46 1 52 0;
#X connect 52 0 53 0;
#X msg 450 190 0;
#X obj 450 210 s \$0-violin/Vibrato-Parameters/vibratoGain;
#X connect 26 0 54 0;
#X connect 54 0 55 0;
#X obj 818 190 r \$0-violin/Vibrato-Parameters/vibratoGain;
#X msg 818 210 /violin/Vibrato-Parameters/vibratoGain \$1;
#X connect 56 0 57 0;
#X connect 57 0 27 0;
#X obj 1186 190 route /violin/Vibrato-Parameters/vibratoGain;
#X obj 1186 210 s \$0-violin/Vibrato-Parameters/vibratoGain;
#X connect 52 1 58 0;
#X connect 58 0 59 0;
#X msg 450 230 0;
#X obj 450 250 s \$0-violin/bowVel;
#X connect 26 0 60 0;
#X connect 60 0 61 0;
#X obj 818 230 r \$0-violin/bowVel;
#X msg 818 250 /violin/bowVel \$1;
#X connect 62 0 63 0;
#X connect 63 0 27 0;
#X obj 1186 230 route /violin/bowVel;
#X obj 1186 250 s \$0-violin/bowVel;
#X connect 58 1 64 0;
#X connect 64 0 65 0;
#X msg 450 270 0;
#X obj 450 290 s \$0-violin/stringNumber;
#X connect 26 0 66 0;
#X connect 66 0 67 0;
#X obj 818 270 r \$0-violin/stringNumber;
#X msg 818 290 /violin/stringNumber \$1;
#X connect 68 0 69 0;
#X connect 69 0 27 0;
#X obj 1186 270 route /violin/stringNumber;
#X obj 1186 290 s \$0-violin/stringNumber;
#X connect 64 1 70 0;
#X connect 70 0 71 0;
#X coords 0 -1 1 1 235 200 1 0 0;
#X text 0 220 Generated Tue Mar  1 14:06:54 2011 by faust2pd v2.2. See http://faust.grame.fr and http://pure-lang.googlecode.com.;
