#N canvas 0 0 450 300 10;
#X obj 10 330 inlet;
#X obj 130 330 inlet;
#X obj 190 330 r \$0-read;
#X obj 130 360 r \$0-all;
#X obj 190 360 faust-control \$0;
#X obj 190 390 s \$0-write;
#X obj 130 390 r \$0-in;
#X obj 130 450 s \$0-out;
#X obj 10 420 faust-gate 1;
#X obj 130 420 violinString~;
#X obj 130 480 outlet~;
#X obj 10 480 outlet;
#X connect 1 0 4 0;
#X connect 2 0 4 0;
#X connect 4 0 5 0;
#X connect 1 0 11 0;
#X connect 6 0 9 0;
#X connect 9 0 7 0;
#X connect 0 0 8 0;
#X connect 8 0 9 0;
#X connect 3 0 9 0;
#X connect 9 1 10 0;
#X obj 10 30 hsl 128 15 0.01 1 0 0 \$0-violinString/Physical-Parameters/bowPosition \$0-violinString/Physical-Parameters/bowPosition bowPosition -2 -6 0 10 -262144 -1 -1 0 1;
#X obj 160 30 nbx 5 14 0.01 1 0 0 \$0-violinString/Physical-Parameters/bowPosition \$0-violinString/Physical-Parameters/bowPosition empty 0 -6 0 10 -262144 -1 -1 256;
#X obj 10 60 hsl 128 15 0 7 0 0 \$0-violinString/Physical-Parameters/force \$0-violinString/Physical-Parameters/force force -2 -6 0 10 -262144 -1 -1 0 1;
#X obj 160 60 nbx 5 14 0 7 0 0 \$0-violinString/Physical-Parameters/force \$0-violinString/Physical-Parameters/force empty 0 -6 0 10 -262144 -1 -1 256;
#X obj 10 90 hsl 128 15 1 15 0 0 \$0-violinString/Vibrato-Parameters/vibratoFreq \$0-violinString/Vibrato-Parameters/vibratoFreq vibratoFreq -2 -6 0 10 -262144 -1 -1 0 1;
#X obj 160 90 nbx 5 14 1 15 0 0 \$0-violinString/Vibrato-Parameters/vibratoFreq \$0-violinString/Vibrato-Parameters/vibratoFreq empty 0 -6 0 10 -262144 -1 -1 256;
#X obj 10 120 hsl 128 15 0 1 0 0 \$0-violinString/Vibrato-Parameters/vibratoGain \$0-violinString/Vibrato-Parameters/vibratoGain vibratoGain -2 -6 0 10 -262144 -1 -1 0 1;
#X obj 160 120 nbx 5 14 0 1 0 0 \$0-violinString/Vibrato-Parameters/vibratoGain \$0-violinString/Vibrato-Parameters/vibratoGain empty 0 -6 0 10 -262144 -1 -1 256;
#X obj 10 150 hsl 128 15 0 130 0 0 \$0-violinString/bowVel \$0-violinString/bowVel bowVel -2 -6 0 10 -262144 -1 -1 0 1;
#X obj 160 150 nbx 5 14 0 130 0 0 \$0-violinString/bowVel \$0-violinString/bowVel empty 0 -6 0 10 -262144 -1 -1 256;
#X obj 10 180 hsl 128 15 0 1 0 0 \$0-violinString/filterGain \$0-violinString/filterGain filterGain -2 -6 0 10 -262144 -1 -1 0 1;
#X obj 160 180 nbx 5 14 0 1 0 0 \$0-violinString/filterGain \$0-violinString/filterGain empty 0 -6 0 10 -262144 -1 -1 256;
#X obj 10 210 hsl 128 15 0 1 0 0 \$0-violinString/filterPole \$0-violinString/filterPole filterPole -2 -6 0 10 -262144 -1 -1 0 1;
#X obj 160 210 nbx 5 14 0 1 0 0 \$0-violinString/filterPole \$0-violinString/filterPole empty 0 -6 0 10 -262144 -1 -1 256;
#X obj 10 240 nbx 5 14 0 1 0 0 \$0-violinString/playGate \$0-violinString/playGate playGate 0 -6 0 10 -262144 -1 -1 256;
#X obj 197 3 bng 15 250 50 1 \$0-init \$0-ignore empty 0 -6 0 10 -262144 -1 -1;
#X obj 217 3 tgl 15 1 \$0-active \$0-active empty 0 -6 0 10 -262144 -1 -1 1 1;
#X obj 450 10 r \$0-init;
#X obj 866 10 s \$0-all;
#X obj 1074 10 s \$0-read;
#X obj 1282 10 r \$0-write;
#X msg 450 30 1;
#X obj 450 50 s \$0-active;
#X connect 33 0 34 0;
#X obj 866 30 r \$0-active;
#X msg 866 50 active \$1;
#X connect 35 0 36 0;
#X connect 36 0 30 0;
#X obj 1282 30 route active;
#X obj 1282 50 s \$0-active;
#X connect 32 0 37 0;
#X connect 37 0 38 0;
#X msg 450 70 0.01;
#X obj 450 90 s \$0-violinString/Physical-Parameters/bowPosition;
#X connect 29 0 39 0;
#X connect 39 0 40 0;
#X obj 866 70 r \$0-violinString/Physical-Parameters/bowPosition;
#X msg 866 90 /violinString/Physical-Parameters/bowPosition \$1;
#X connect 41 0 42 0;
#X connect 42 0 30 0;
#X obj 1282 70 route /violinString/Physical-Parameters/bowPosition;
#X obj 1282 90 s \$0-violinString/Physical-Parameters/bowPosition;
#X connect 37 1 43 0;
#X connect 43 0 44 0;
#X msg 450 110 0;
#X obj 450 130 s \$0-violinString/Physical-Parameters/force;
#X connect 29 0 45 0;
#X connect 45 0 46 0;
#X obj 866 110 r \$0-violinString/Physical-Parameters/force;
#X msg 866 130 /violinString/Physical-Parameters/force \$1;
#X connect 47 0 48 0;
#X connect 48 0 30 0;
#X obj 1282 110 route /violinString/Physical-Parameters/force;
#X obj 1282 130 s \$0-violinString/Physical-Parameters/force;
#X connect 43 1 49 0;
#X connect 49 0 50 0;
#X msg 450 150 6;
#X obj 450 170 s \$0-violinString/Vibrato-Parameters/vibratoFreq;
#X connect 29 0 51 0;
#X connect 51 0 52 0;
#X obj 866 150 r \$0-violinString/Vibrato-Parameters/vibratoFreq;
#X msg 866 170 /violinString/Vibrato-Parameters/vibratoFreq \$1;
#X connect 53 0 54 0;
#X connect 54 0 30 0;
#X obj 1282 150 route /violinString/Vibrato-Parameters/vibratoFreq;
#X obj 1282 170 s \$0-violinString/Vibrato-Parameters/vibratoFreq;
#X connect 49 1 55 0;
#X connect 55 0 56 0;
#X msg 450 190 0;
#X obj 450 210 s \$0-violinString/Vibrato-Parameters/vibratoGain;
#X connect 29 0 57 0;
#X connect 57 0 58 0;
#X obj 866 190 r \$0-violinString/Vibrato-Parameters/vibratoGain;
#X msg 866 210 /violinString/Vibrato-Parameters/vibratoGain \$1;
#X connect 59 0 60 0;
#X connect 60 0 30 0;
#X obj 1282 190 route /violinString/Vibrato-Parameters/vibratoGain;
#X obj 1282 210 s \$0-violinString/Vibrato-Parameters/vibratoGain;
#X connect 55 1 61 0;
#X connect 61 0 62 0;
#X msg 450 230 0;
#X obj 450 250 s \$0-violinString/bowVel;
#X connect 29 0 63 0;
#X connect 63 0 64 0;
#X obj 866 230 r \$0-violinString/bowVel;
#X msg 866 250 /violinString/bowVel \$1;
#X connect 65 0 66 0;
#X connect 66 0 30 0;
#X obj 1282 230 route /violinString/bowVel;
#X obj 1282 250 s \$0-violinString/bowVel;
#X connect 61 1 67 0;
#X connect 67 0 68 0;
#X msg 450 270 0.95;
#X obj 450 290 s \$0-violinString/filterGain;
#X connect 29 0 69 0;
#X connect 69 0 70 0;
#X obj 866 270 r \$0-violinString/filterGain;
#X msg 866 290 /violinString/filterGain \$1;
#X connect 71 0 72 0;
#X connect 72 0 30 0;
#X obj 1282 270 route /violinString/filterGain;
#X obj 1282 290 s \$0-violinString/filterGain;
#X connect 67 1 73 0;
#X connect 73 0 74 0;
#X msg 450 310 0.6;
#X obj 450 330 s \$0-violinString/filterPole;
#X connect 29 0 75 0;
#X connect 75 0 76 0;
#X obj 866 310 r \$0-violinString/filterPole;
#X msg 866 330 /violinString/filterPole \$1;
#X connect 77 0 78 0;
#X connect 78 0 30 0;
#X obj 1282 310 route /violinString/filterPole;
#X obj 1282 330 s \$0-violinString/filterPole;
#X connect 73 1 79 0;
#X connect 79 0 80 0;
#X msg 450 350 1;
#X obj 450 370 s \$0-violinString/playGate;
#X connect 29 0 81 0;
#X connect 81 0 82 0;
#X obj 866 350 r \$0-violinString/playGate;
#X msg 866 370 /violinString/playGate \$1;
#X connect 83 0 84 0;
#X connect 84 0 30 0;
#X obj 1282 350 route /violinString/playGate;
#X obj 1282 370 s \$0-violinString/playGate;
#X connect 79 1 85 0;
#X connect 85 0 86 0;
#X coords 0 -1 1 1 235 260 1 0 0;
#X text 0 280 Generated Mon Feb 28 20:46:41 2011 by faust2pd v2.2. See http://faust.grame.fr and http://pure-lang.googlecode.com.;
