#N canvas 377 43 945 666 10;
#X obj 89 180 violin~;
#X obj -30 214 metro 100;
#X obj 3 255 env~;
#X floatatom 3 279 5 0 0 0 - - -;
#N canvas 271 208 1169 552 gestureDatas 0;
#X obj 63 603 textfile;
#X msg 63 630 freq \$1;
#X obj 129 604 textfile;
#X obj 228 604 textfile;
#X msg 228 630 bowVel \$1;
#X obj 302 604 textfile;
#X msg 302 630 force \$1;
#X obj 826 493 metro 4.167;
#X obj 373 605 textfile;
#X obj 246 670 outlet;
#X obj 760 378 inlet;
#X obj 826 470 inlet;
#X obj -141 472 prepend read;
#X obj -55 247 inlet;
#X obj 26 428 prepend read;
#X obj 196 404 prepend read;
#X obj 380 386 prepend read;
#X obj 593 369 prepend read;
#X text 868 473 bang;
#X text 799 380 rewind;
#X obj 97 249 inlet;
#X text -16 250 directory;
#X text 137 251 basefilename;
#X text -143 249 read;
#X obj -181 247 inlet;
#X msg 373 629 bowPosition \$1;
#X msg 129 630 stringNumber \$1;
#X obj 611 262 bng 15 250 50 0 empty empty empty 17 7 0 10 -262144
-1 -1;
#X obj 251 208 bng 15 250 50 0 empty empty empty 17 7 0 10 -262144
-1 -1;
#X obj -64 221 bng 15 250 50 0 empty empty empty 17 7 0 10 -262144
-1 -1;
#X obj 757 423 bng 15 250 50 0 empty empty empty 17 7 0 10 -262144
-1 -1;
#X obj 847 529 bng 15 250 50 0 empty empty empty 17 7 0 10 -262144
-1 -1;
#X obj -140 446 sprintf %s/%s-pitch_F.txt;
#X obj 27 402 sprintf %s/%s-string_F.txt;
#X obj 196 378 sprintf %s/%s-bow_vel_F.txt;
#X obj 380 360 sprintf %s/%s-force_newtons_F.txt;
#X obj 593 343 sprintf %s/%s-beta_F.txt;
#X connect 0 0 1 0;
#X connect 1 0 9 0;
#X connect 2 0 26 0;
#X connect 3 0 4 0;
#X connect 4 0 9 0;
#X connect 5 0 6 0;
#X connect 6 0 9 0;
#X connect 7 0 0 0;
#X connect 7 0 2 0;
#X connect 7 0 3 0;
#X connect 7 0 5 0;
#X connect 7 0 8 0;
#X connect 8 0 25 0;
#X connect 10 0 8 0;
#X connect 10 0 5 0;
#X connect 10 0 3 0;
#X connect 10 0 2 0;
#X connect 10 0 0 0;
#X connect 10 0 30 0;
#X connect 11 0 7 0;
#X connect 11 0 31 0;
#X connect 12 0 0 0;
#X connect 13 0 28 0;
#X connect 13 0 32 0;
#X connect 13 0 33 0;
#X connect 13 0 34 0;
#X connect 13 0 35 0;
#X connect 13 0 36 0;
#X connect 14 0 2 0;
#X connect 15 0 3 0;
#X connect 16 0 5 0;
#X connect 17 0 8 0;
#X connect 20 0 27 0;
#X connect 20 0 32 1;
#X connect 20 0 33 1;
#X connect 20 0 34 1;
#X connect 20 0 35 1;
#X connect 20 0 36 1;
#X connect 24 0 29 0;
#X connect 24 0 32 0;
#X connect 24 0 33 0;
#X connect 24 0 34 0;
#X connect 24 0 35 0;
#X connect 24 0 36 0;
#X connect 25 0 9 0;
#X connect 26 0 9 0;
#X connect 32 0 12 0;
#X connect 33 0 14 0;
#X connect 34 0 15 0;
#X connect 35 0 16 0;
#X connect 36 0 17 0;
#X restore -12 153 pd gestureDatas;
#X msg 314 70 bang;
#X msg 247 64 rewind;
#X obj 247 32 bng 15 250 50 0 empty empty empty 17 7 0 10 -262144 -1
-1;
#X text 315 50 play;
#X obj 234 -6 loadbang;
#X msg 339 446 start;
#X msg 392 446 stop;
#X obj -120 471 audio-out;
#X obj 24 405 *~;
#X floatatom -28 338 3 -99 300 0 - - -;
#X obj -28 366 dbtorms;
#X obj 62 405 *~;
#X text 326 285 - level of unprocessed signal \, between 0 and 1 (default:
0);
#X text 363 264 - level of reverbed signal \, between 0 and 1 (default:
0.3);
#X text 39 274 <- rms dB.;
#X msg 233 117 bang;
#X msg 302 394 open -wave /media/sf_W7_C_DRIVE/Users/estefield/Documents/PROJECTS/VIOLIN_PM/soundTests/test.wav
;
#X obj 302 499 writesf~ 2;
#X msg -174 113 bang;
#X text -178 82 read gestures;
#X text -18 127 directory;
#X text 20 138 basefilename;
#X text -72 315 level in dB;
#X obj -156 228 print message;
#X msg 9 -22 muneira;
#X msg 265 264 Dry-Wet-Mix 0.2;
#X msg 266 219 Mid-RT60 1;
#X text 376 242 - high-frequency damping corner frequency;
#X text 352 219 - time to decay by 60 dB at middle frequencies;
#X msg 266 170 Low-RT60 2;
#X text 356 170 - time to decay 60 dB at low frequencies;
#X text 356 197 - cross-over frequency between low and middle frequencies
;
#X msg 266 195 LF-X 1000;
#X msg 265 242 HF-Damping 4000;
#X msg 265 289 Level -10;
#X msg 56 52 kreutzer2_saltato;
#X msg 64 77 kreutzer2_saltato_pp;
#X msg 76 99 kreutzer2_saltato_ff;
#N canvas 489 22 951 504 reverb 0;
#X obj -769 161 zita_rev1;
#X obj -766 26 inlet;
#X text -577 113 - level of unprocessed signal \, between 0 and 1 (default:
0);
#X text -536 93 - level of reverbed signal \, between 0 and 1 (default:
0.3);
#X msg -638 92 Dry-Wet-Mix 0.2;
#X msg -637 47 Mid-RT60 1;
#X text -523 71 - high-frequency damping corner frequency;
#X text -551 47 - time to decay by 60 dB at middle frequencies;
#X msg -637 -2 Low-RT60 2;
#X text -547 -2 - time to decay 60 dB at low frequencies;
#X text -547 25 - cross-over frequency between low and middle frequencies
;
#X msg -637 23 LF-X 1000;
#X msg -638 70 HF-Damping 4000;
#X msg -635 114 Level -10;
#X obj -355 380 outlet~;
#X obj 60 379 outlet~;
#X obj -356 131 inlet~;
#X obj 59 132 inlet~;
#X obj -687 -9 bng 15 250 50 0 empty empty empty 17 7 0 10 -262144
-1 -1;
#X text -707 -29 set defaults;
#X connect 0 1 14 0;
#X connect 0 2 15 0;
#X connect 1 0 0 0;
#X connect 4 0 13 0;
#X connect 4 0 0 0;
#X connect 5 0 12 0;
#X connect 5 0 0 0;
#X connect 8 0 11 0;
#X connect 11 0 5 0;
#X connect 11 0 0 0;
#X connect 12 0 4 0;
#X connect 12 0 0 0;
#X connect 13 0 0 0;
#X connect 16 0 0 1;
#X connect 17 0 0 2;
#X connect 18 0 8 0;
#X restore 155 330 pd reverb;
#X obj 154 171 violinn~;
#N canvas 578 118 450 300 switch 0;
#X obj 290 48 inlet~;
#X obj 363 49 inlet~;
#X obj 115 211 outlet~;
#X obj 253 211 outlet~;
#X obj 277 133 *~;
#X obj 351 138 *~;
#X obj 36 21 tgl 15 0 empty empty empty 17 7 0 10 -262144 -1 -1 1 1
;
#X text 27 41 right;
#X obj 129 48 inlet~;
#X obj 201 48 inlet~;
#X obj 111 136 *~;
#X obj 185 137 *~;
#X obj 60 86 == 0;
#X connect 0 0 4 1;
#X connect 1 0 5 1;
#X connect 4 0 2 0;
#X connect 5 0 3 0;
#X connect 6 0 12 0;
#X connect 6 0 4 0;
#X connect 6 0 5 0;
#X connect 8 0 10 1;
#X connect 9 0 11 1;
#X connect 10 0 2 0;
#X connect 11 0 3 0;
#X connect 12 0 10 0;
#X connect 12 0 11 0;
#X coords 0 -1 1 1 85 60 1 0 0;
#X restore 103 218 pd switch;
#X msg 44 27 zapateado2_v2;
#X msg 29 2 partita3;
#X connect 0 1 2 0;
#X connect 0 1 45 0;
#X connect 0 2 45 1;
#X connect 1 0 2 0;
#X connect 2 0 3 0;
#X connect 4 0 0 0;
#X connect 4 0 44 0;
#X connect 5 0 4 4;
#X connect 6 0 4 3;
#X connect 7 0 6 0;
#X connect 9 0 7 0;
#X connect 9 0 20 0;
#X connect 9 0 29 0;
#X connect 10 0 22 0;
#X connect 11 0 22 0;
#X connect 13 0 12 1;
#X connect 14 0 15 0;
#X connect 15 0 13 1;
#X connect 15 0 16 1;
#X connect 16 0 12 2;
#X connect 20 0 34 0;
#X connect 21 0 22 0;
#X connect 23 0 4 0;
#X connect 29 0 4 2;
#X connect 29 0 4 1;
#X connect 30 0 39 0;
#X connect 30 0 43 0;
#X connect 31 0 38 0;
#X connect 31 0 43 0;
#X connect 34 0 37 0;
#X connect 34 0 43 0;
#X connect 37 0 31 0;
#X connect 37 0 43 0;
#X connect 38 0 30 0;
#X connect 38 0 43 0;
#X connect 39 0 43 0;
#X connect 40 0 4 1;
#X connect 40 0 4 2;
#X connect 41 0 4 1;
#X connect 41 0 4 2;
#X connect 42 0 4 1;
#X connect 42 0 4 2;
#X connect 43 0 13 0;
#X connect 43 0 22 0;
#X connect 43 1 16 0;
#X connect 43 1 22 1;
#X connect 44 1 45 2;
#X connect 44 2 45 3;
#X connect 45 0 43 1;
#X connect 45 1 43 2;
#X connect 46 0 4 1;
#X connect 46 0 4 2;
#X connect 47 0 4 1;
#X connect 47 0 4 2;
