#N canvas 456 177 761 497 12;
#X obj 42 -42 dac~;
#X obj 22 -194 notein;
#N canvas 588 168 286 236 midi 0;
#X obj 35 15 inlet;
#X obj 96 15 inlet;
#X obj 25 53 mtof;
#X obj 92 53 / 127;
#X msg 89 96 gain \$1;
#X msg 176 52 gate \$1;
#X msg 19 94 freq \$1;
#X obj 24 143 outlet;
#X obj 81 142 outlet;
#X obj 173 99 outlet;
#X connect 0 0 2 0;
#X connect 1 0 3 0;
#X connect 1 0 5 0;
#X connect 2 0 6 0;
#X connect 3 0 4 0;
#X connect 4 0 8 0;
#X connect 5 0 9 0;
#X connect 6 0 7 0;
#X restore 18 -152 pd midi;
#X msg 458 -86 \; pd dsp 1;
#X msg 458 -48 \; pd dsp 0;
#X floatatom 290 -201 5 0 0 0 - - -;
#X obj 290 -339 vsl 15 128 1 15 0 0 empty empty empty 0 -9 0 10 -262144
-1 -1 0 1;
#X msg 290 -175 vibratoFreq \$1;
#X floatatom 417 -203 5 0 0 0 - - -;
#X obj 417 -341 vsl 15 128 0 1 0 0 empty empty empty 0 -9 0 10 -262144
-1 -1 0 1;
#X msg 417 -177 vibratoGain \$1;
#X floatatom 541 -203 5 0 0 0 - - -;
#X obj 541 -341 vsl 15 128 0 1 0 0 empty empty empty 0 -9 0 10 -262144
-1 -1 0 1;
#X obj 51 -114 modalBar~;
#X msg 128 -174 preset \$1;
#X floatatom 128 -200 5 0 8 0 - - -;
#X floatatom 210 -200 5 0 0 0 - - -;
#X msg 210 -174 reson \$1;
#X msg 541 -177 stickHardness \$1;
#X connect 1 0 2 0;
#X connect 1 1 2 1;
#X connect 2 0 13 0;
#X connect 2 2 13 0;
#X connect 5 0 7 0;
#X connect 6 0 5 0;
#X connect 7 0 13 0;
#X connect 8 0 10 0;
#X connect 9 0 8 0;
#X connect 10 0 13 0;
#X connect 11 0 18 0;
#X connect 12 0 11 0;
#X connect 13 1 0 0;
#X connect 13 2 0 1;
#X connect 14 0 13 0;
#X connect 15 0 14 0;
#X connect 16 0 17 0;
#X connect 17 0 13 0;
#X connect 18 0 13 0;
