#N canvas 0 0 450 300 10;
#X obj 10 480 inlet;
#X obj 130 480 inlet;
#X obj 190 480 r \$0-read;
#X obj 130 510 r \$0-all;
#X obj 190 510 faust-control \$0;
#X obj 190 540 s \$0-write;
#X obj 130 540 r \$0-in;
#X obj 130 600 s \$0-out;
#X obj 10 570 faust-gate 1;
#X obj 130 570 fm~;
#X obj 130 630 outlet~;
#X obj 190 630 outlet~;
#X obj 10 630 outlet;
#X connect 1 0 4 0;
#X connect 2 0 4 0;
#X connect 4 0 5 0;
#X connect 1 0 12 0;
#X connect 6 0 9 0;
#X connect 9 0 7 0;
#X connect 0 0 8 0;
#X connect 8 0 9 0;
#X connect 3 0 9 0;
#X connect 9 1 10 0;
#X connect 9 2 11 0;
#X obj 10 30 hsl 128 15 0 2 0 0 \$0-fm/Envelope-Parameters/envelopeAttack \$0-fm/Envelope-Parameters/envelopeAttack envelopeAttack -2 -6 0 10 -262144 -1 -1 0 1;
#X obj 160 30 nbx 5 14 0 2 0 0 \$0-fm/Envelope-Parameters/envelopeAttack \$0-fm/Envelope-Parameters/envelopeAttack empty 0 -6 0 10 -262144 -1 -1 256;
#X obj 10 60 hsl 128 15 0 2 0 0 \$0-fm/Envelope-Parameters/envelopeDecay \$0-fm/Envelope-Parameters/envelopeDecay envelopeDecay -2 -6 0 10 -262144 -1 -1 0 1;
#X obj 160 60 nbx 5 14 0 2 0 0 \$0-fm/Envelope-Parameters/envelopeDecay \$0-fm/Envelope-Parameters/envelopeDecay empty 0 -6 0 10 -262144 -1 -1 256;
#X obj 10 90 hsl 128 15 0 2 0 0 \$0-fm/Envelope-Parameters/envelopeRelease \$0-fm/Envelope-Parameters/envelopeRelease envelopeRelease -2 -6 0 10 -262144 -1 -1 0 1;
#X obj 160 90 nbx 5 14 0 2 0 0 \$0-fm/Envelope-Parameters/envelopeRelease \$0-fm/Envelope-Parameters/envelopeRelease empty 0 -6 0 10 -262144 -1 -1 256;
#X obj 10 120 hsl 128 15 0 1 0 0 \$0-fm/Nonlinear-Filter/Nonlinearity \$0-fm/Nonlinear-Filter/Nonlinearity Nonlinearity -2 -6 0 10 -262144 -1 -1 0 1;
#X obj 160 120 nbx 5 14 0 1 0 0 \$0-fm/Nonlinear-Filter/Nonlinearity \$0-fm/Nonlinear-Filter/Nonlinearity empty 0 -6 0 10 -262144 -1 -1 256;
#X obj 10 150 tgl 15 0 \$0-fm/Nonlinear-Filter/followFreq \$0-fm/Nonlinear-Filter/followFreq followFreq 0 -6 0 10 -262144 -1 -1 0 1;
#X obj 10 180 hsl 128 15 20 1000 0 0 \$0-fm/Nonlinear-Filter/freqMod \$0-fm/Nonlinear-Filter/freqMod freqMod -2 -6 0 10 -262144 -1 -1 0 1;
#X obj 160 180 nbx 5 14 20 1000 0 0 \$0-fm/Nonlinear-Filter/freqMod \$0-fm/Nonlinear-Filter/freqMod empty 0 -6 0 10 -262144 -1 -1 256;
#X obj 10 210 hsl 128 15 0 2 0 0 \$0-fm/Nonlinear-Filter/nonLinAttack \$0-fm/Nonlinear-Filter/nonLinAttack nonLinAttack -2 -6 0 10 -262144 -1 -1 0 1;
#X obj 160 210 nbx 5 14 0 2 0 0 \$0-fm/Nonlinear-Filter/nonLinAttack \$0-fm/Nonlinear-Filter/nonLinAttack empty 0 -6 0 10 -262144 -1 -1 256;
#X obj 10 240 hsl 128 15 0 2 0 0 \$0-fm/Nonlinear-Filter/nonLinDecay \$0-fm/Nonlinear-Filter/nonLinDecay nonLinDecay -2 -6 0 10 -262144 -1 -1 0 1;
#X obj 160 240 nbx 5 14 0 2 0 0 \$0-fm/Nonlinear-Filter/nonLinDecay \$0-fm/Nonlinear-Filter/nonLinDecay empty 0 -6 0 10 -262144 -1 -1 256;
#X obj 10 270 hsl 128 15 0 2 0 0 \$0-fm/Nonlinear-Filter/nonLinRelease \$0-fm/Nonlinear-Filter/nonLinRelease nonLinRelease -2 -6 0 10 -262144 -1 -1 0 1;
#X obj 160 270 nbx 5 14 0 2 0 0 \$0-fm/Nonlinear-Filter/nonLinRelease \$0-fm/Nonlinear-Filter/nonLinRelease empty 0 -6 0 10 -262144 -1 -1 256;
#X obj 10 300 nbx 5 14 0 2 0 0 \$0-fm/Nonlinear-Filter/sigModType \$0-fm/Nonlinear-Filter/sigModType sigModType 0 -6 0 10 -262144 -1 -1 256;
#X obj 10 330 tgl 15 0 \$0-fm/Nonlinear-Filter/typeMod \$0-fm/Nonlinear-Filter/typeMod typeMod 0 -6 0 10 -262144 -1 -1 0 1;
#X obj 10 360 hsl 128 15 0 1 0 0 \$0-fm/Vibrato-Parameters/vibratoAmp \$0-fm/Vibrato-Parameters/vibratoAmp vibratoAmp -2 -6 0 10 -262144 -1 -1 0 1;
#X obj 160 360 nbx 5 14 0 1 0 0 \$0-fm/Vibrato-Parameters/vibratoAmp \$0-fm/Vibrato-Parameters/vibratoAmp empty 0 -6 0 10 -262144 -1 -1 256;
#X obj 10 390 hsl 128 15 1 15 0 0 \$0-fm/Vibrato-Parameters/vibratoFreq \$0-fm/Vibrato-Parameters/vibratoFreq vibratoFreq -2 -6 0 10 -262144 -1 -1 0 1;
#X obj 160 390 nbx 5 14 1 15 0 0 \$0-fm/Vibrato-Parameters/vibratoFreq \$0-fm/Vibrato-Parameters/vibratoFreq empty 0 -6 0 10 -262144 -1 -1 256;
#X obj 197 3 bng 15 250 50 1 \$0-init \$0-ignore empty 0 -6 0 10 -262144 -1 -1;
#X obj 217 3 tgl 15 1 \$0-active \$0-active empty 0 -6 0 10 -262144 -1 -1 1 1;
#X obj 450 10 r \$0-init;
#X obj 818 10 s \$0-all;
#X obj 1002 10 s \$0-read;
#X obj 1186 10 r \$0-write;
#X msg 450 30 1;
#X obj 450 50 s \$0-active;
#X connect 42 0 43 0;
#X obj 818 30 r \$0-active;
#X msg 818 50 active \$1;
#X connect 44 0 45 0;
#X connect 45 0 39 0;
#X obj 1186 30 route active;
#X obj 1186 50 s \$0-active;
#X connect 41 0 46 0;
#X connect 46 0 47 0;
#X msg 450 70 0.1;
#X obj 450 90 s \$0-fm/Envelope-Parameters/envelopeAttack;
#X connect 38 0 48 0;
#X connect 48 0 49 0;
#X obj 818 70 r \$0-fm/Envelope-Parameters/envelopeAttack;
#X msg 818 90 /fm/Envelope-Parameters/envelopeAttack \$1;
#X connect 50 0 51 0;
#X connect 51 0 39 0;
#X obj 1186 70 route /fm/Envelope-Parameters/envelopeAttack;
#X obj 1186 90 s \$0-fm/Envelope-Parameters/envelopeAttack;
#X connect 46 1 52 0;
#X connect 52 0 53 0;
#X msg 450 110 0.05;
#X obj 450 130 s \$0-fm/Envelope-Parameters/envelopeDecay;
#X connect 38 0 54 0;
#X connect 54 0 55 0;
#X obj 818 110 r \$0-fm/Envelope-Parameters/envelopeDecay;
#X msg 818 130 /fm/Envelope-Parameters/envelopeDecay \$1;
#X connect 56 0 57 0;
#X connect 57 0 39 0;
#X obj 1186 110 route /fm/Envelope-Parameters/envelopeDecay;
#X obj 1186 130 s \$0-fm/Envelope-Parameters/envelopeDecay;
#X connect 52 1 58 0;
#X connect 58 0 59 0;
#X msg 450 150 0.2;
#X obj 450 170 s \$0-fm/Envelope-Parameters/envelopeRelease;
#X connect 38 0 60 0;
#X connect 60 0 61 0;
#X obj 818 150 r \$0-fm/Envelope-Parameters/envelopeRelease;
#X msg 818 170 /fm/Envelope-Parameters/envelopeRelease \$1;
#X connect 62 0 63 0;
#X connect 63 0 39 0;
#X obj 1186 150 route /fm/Envelope-Parameters/envelopeRelease;
#X obj 1186 170 s \$0-fm/Envelope-Parameters/envelopeRelease;
#X connect 58 1 64 0;
#X connect 64 0 65 0;
#X msg 450 190 0;
#X obj 450 210 s \$0-fm/Nonlinear-Filter/Nonlinearity;
#X connect 38 0 66 0;
#X connect 66 0 67 0;
#X obj 818 190 r \$0-fm/Nonlinear-Filter/Nonlinearity;
#X msg 818 210 /fm/Nonlinear-Filter/Nonlinearity \$1;
#X connect 68 0 69 0;
#X connect 69 0 39 0;
#X obj 1186 190 route /fm/Nonlinear-Filter/Nonlinearity;
#X obj 1186 210 s \$0-fm/Nonlinear-Filter/Nonlinearity;
#X connect 64 1 70 0;
#X connect 70 0 71 0;
#X msg 450 230 0;
#X obj 450 250 s \$0-fm/Nonlinear-Filter/followFreq;
#X connect 38 0 72 0;
#X connect 72 0 73 0;
#X obj 818 230 r \$0-fm/Nonlinear-Filter/followFreq;
#X msg 818 250 /fm/Nonlinear-Filter/followFreq \$1;
#X connect 74 0 75 0;
#X connect 75 0 39 0;
#X obj 1186 230 route /fm/Nonlinear-Filter/followFreq;
#X obj 1186 250 s \$0-fm/Nonlinear-Filter/followFreq;
#X connect 70 1 76 0;
#X connect 76 0 77 0;
#X msg 450 270 220;
#X obj 450 290 s \$0-fm/Nonlinear-Filter/freqMod;
#X connect 38 0 78 0;
#X connect 78 0 79 0;
#X obj 818 270 r \$0-fm/Nonlinear-Filter/freqMod;
#X msg 818 290 /fm/Nonlinear-Filter/freqMod \$1;
#X connect 80 0 81 0;
#X connect 81 0 39 0;
#X obj 1186 270 route /fm/Nonlinear-Filter/freqMod;
#X obj 1186 290 s \$0-fm/Nonlinear-Filter/freqMod;
#X connect 76 1 82 0;
#X connect 82 0 83 0;
#X msg 450 310 0.1;
#X obj 450 330 s \$0-fm/Nonlinear-Filter/nonLinAttack;
#X connect 38 0 84 0;
#X connect 84 0 85 0;
#X obj 818 310 r \$0-fm/Nonlinear-Filter/nonLinAttack;
#X msg 818 330 /fm/Nonlinear-Filter/nonLinAttack \$1;
#X connect 86 0 87 0;
#X connect 87 0 39 0;
#X obj 1186 310 route /fm/Nonlinear-Filter/nonLinAttack;
#X obj 1186 330 s \$0-fm/Nonlinear-Filter/nonLinAttack;
#X connect 82 1 88 0;
#X connect 88 0 89 0;
#X msg 450 350 0.05;
#X obj 450 370 s \$0-fm/Nonlinear-Filter/nonLinDecay;
#X connect 38 0 90 0;
#X connect 90 0 91 0;
#X obj 818 350 r \$0-fm/Nonlinear-Filter/nonLinDecay;
#X msg 818 370 /fm/Nonlinear-Filter/nonLinDecay \$1;
#X connect 92 0 93 0;
#X connect 93 0 39 0;
#X obj 1186 350 route /fm/Nonlinear-Filter/nonLinDecay;
#X obj 1186 370 s \$0-fm/Nonlinear-Filter/nonLinDecay;
#X connect 88 1 94 0;
#X connect 94 0 95 0;
#X msg 450 390 0.2;
#X obj 450 410 s \$0-fm/Nonlinear-Filter/nonLinRelease;
#X connect 38 0 96 0;
#X connect 96 0 97 0;
#X obj 818 390 r \$0-fm/Nonlinear-Filter/nonLinRelease;
#X msg 818 410 /fm/Nonlinear-Filter/nonLinRelease \$1;
#X connect 98 0 99 0;
#X connect 99 0 39 0;
#X obj 1186 390 route /fm/Nonlinear-Filter/nonLinRelease;
#X obj 1186 410 s \$0-fm/Nonlinear-Filter/nonLinRelease;
#X connect 94 1 100 0;
#X connect 100 0 101 0;
#X msg 450 430 0;
#X obj 450 450 s \$0-fm/Nonlinear-Filter/sigModType;
#X connect 38 0 102 0;
#X connect 102 0 103 0;
#X obj 818 430 r \$0-fm/Nonlinear-Filter/sigModType;
#X msg 818 450 /fm/Nonlinear-Filter/sigModType \$1;
#X connect 104 0 105 0;
#X connect 105 0 39 0;
#X obj 1186 430 route /fm/Nonlinear-Filter/sigModType;
#X obj 1186 450 s \$0-fm/Nonlinear-Filter/sigModType;
#X connect 100 1 106 0;
#X connect 106 0 107 0;
#X msg 450 470 0;
#X obj 450 490 s \$0-fm/Nonlinear-Filter/typeMod;
#X connect 38 0 108 0;
#X connect 108 0 109 0;
#X obj 818 470 r \$0-fm/Nonlinear-Filter/typeMod;
#X msg 818 490 /fm/Nonlinear-Filter/typeMod \$1;
#X connect 110 0 111 0;
#X connect 111 0 39 0;
#X obj 1186 470 route /fm/Nonlinear-Filter/typeMod;
#X obj 1186 490 s \$0-fm/Nonlinear-Filter/typeMod;
#X connect 106 1 112 0;
#X connect 112 0 113 0;
#X msg 450 510 0.02;
#X obj 450 530 s \$0-fm/Vibrato-Parameters/vibratoAmp;
#X connect 38 0 114 0;
#X connect 114 0 115 0;
#X obj 818 510 r \$0-fm/Vibrato-Parameters/vibratoAmp;
#X msg 818 530 /fm/Vibrato-Parameters/vibratoAmp \$1;
#X connect 116 0 117 0;
#X connect 117 0 39 0;
#X obj 1186 510 route /fm/Vibrato-Parameters/vibratoAmp;
#X obj 1186 530 s \$0-fm/Vibrato-Parameters/vibratoAmp;
#X connect 112 1 118 0;
#X connect 118 0 119 0;
#X msg 450 550 6;
#X obj 450 570 s \$0-fm/Vibrato-Parameters/vibratoFreq;
#X connect 38 0 120 0;
#X connect 120 0 121 0;
#X obj 818 550 r \$0-fm/Vibrato-Parameters/vibratoFreq;
#X msg 818 570 /fm/Vibrato-Parameters/vibratoFreq \$1;
#X connect 122 0 123 0;
#X connect 123 0 39 0;
#X obj 1186 550 route /fm/Vibrato-Parameters/vibratoFreq;
#X obj 1186 570 s \$0-fm/Vibrato-Parameters/vibratoFreq;
#X connect 118 1 124 0;
#X connect 124 0 125 0;
#X coords 0 -1 1 1 235 410 1 0 0;
#X text 0 430 Generated Mon Feb 28 14:41:18 2011 by faust2pd v2.2. See http://faust.grame.fr and http://pure-lang.googlecode.com.;
