#N canvas 0 0 450 300 10;
#X obj 10 390 inlet;
#X obj 130 390 inlet;
#X obj 190 390 r \$0-read;
#X obj 130 420 r \$0-all;
#X obj 190 420 faust-control \$0;
#X obj 190 450 s \$0-write;
#X obj 130 450 r \$0-in;
#X obj 130 510 s \$0-out;
#X obj 10 480 faust-gate 1;
#X obj 130 480 fm~;
#X obj 130 540 outlet~;
#X obj 190 540 outlet~;
#X obj 10 540 outlet;
#X connect 1 0 4 0;
#X connect 2 0 4 0;
#X connect 4 0 5 0;
#X connect 1 0 12 0;
#X connect 6 0 9 0;
#X connect 9 0 7 0;
#X connect 0 0 8 0;
#X connect 8 0 9 0;
#X connect 3 0 9 0;
#X connect 9 1 10 0;
#X connect 9 2 11 0;
#X obj 10 30 hsl 128 15 0 1 0 0 \$0-fm/Nonlinearity \$0-fm/Nonlinearity Nonlinearity -2 -6 0 10 -262144 -1 -1 0 1;
#X obj 160 30 nbx 5 14 0 1 0 0 \$0-fm/Nonlinearity \$0-fm/Nonlinearity empty 0 -6 0 10 -262144 -1 -1 256;
#X obj 10 60 hsl 128 15 0 2 0 0 \$0-fm/envelopeAttack \$0-fm/envelopeAttack envelopeAttack -2 -6 0 10 -262144 -1 -1 0 1;
#X obj 160 60 nbx 5 14 0 2 0 0 \$0-fm/envelopeAttack \$0-fm/envelopeAttack empty 0 -6 0 10 -262144 -1 -1 256;
#X obj 10 90 hsl 128 15 0 2 0 0 \$0-fm/envelopeDecay \$0-fm/envelopeDecay envelopeDecay -2 -6 0 10 -262144 -1 -1 0 1;
#X obj 160 90 nbx 5 14 0 2 0 0 \$0-fm/envelopeDecay \$0-fm/envelopeDecay empty 0 -6 0 10 -262144 -1 -1 256;
#X obj 10 120 hsl 128 15 0 2 0 0 \$0-fm/envelopeRelease \$0-fm/envelopeRelease envelopeRelease -2 -6 0 10 -262144 -1 -1 0 1;
#X obj 160 120 nbx 5 14 0 2 0 0 \$0-fm/envelopeRelease \$0-fm/envelopeRelease empty 0 -6 0 10 -262144 -1 -1 256;
#X obj 10 150 hsl 128 15 0 2 0 0 \$0-fm/nonLinAttack \$0-fm/nonLinAttack nonLinAttack -2 -6 0 10 -262144 -1 -1 0 1;
#X obj 160 150 nbx 5 14 0 2 0 0 \$0-fm/nonLinAttack \$0-fm/nonLinAttack empty 0 -6 0 10 -262144 -1 -1 256;
#X obj 10 180 hsl 128 15 0 2 0 0 \$0-fm/nonLinDecay \$0-fm/nonLinDecay nonLinDecay -2 -6 0 10 -262144 -1 -1 0 1;
#X obj 160 180 nbx 5 14 0 2 0 0 \$0-fm/nonLinDecay \$0-fm/nonLinDecay empty 0 -6 0 10 -262144 -1 -1 256;
#X obj 10 210 hsl 128 15 0 2 0 0 \$0-fm/nonLinRelease \$0-fm/nonLinRelease nonLinRelease -2 -6 0 10 -262144 -1 -1 0 1;
#X obj 160 210 nbx 5 14 0 2 0 0 \$0-fm/nonLinRelease \$0-fm/nonLinRelease empty 0 -6 0 10 -262144 -1 -1 256;
#X obj 10 240 tgl 15 0 \$0-fm/squared \$0-fm/squared squared 0 -6 0 10 -262144 -1 -1 0 1;
#X obj 10 270 hsl 128 15 0 1 0 0 \$0-fm/vibratoAmp \$0-fm/vibratoAmp vibratoAmp -2 -6 0 10 -262144 -1 -1 0 1;
#X obj 160 270 nbx 5 14 0 1 0 0 \$0-fm/vibratoAmp \$0-fm/vibratoAmp empty 0 -6 0 10 -262144 -1 -1 256;
#X obj 10 300 hsl 128 15 1 15 0 0 \$0-fm/vibratoFreq \$0-fm/vibratoFreq vibratoFreq -2 -6 0 10 -262144 -1 -1 0 1;
#X obj 160 300 nbx 5 14 1 15 0 0 \$0-fm/vibratoFreq \$0-fm/vibratoFreq empty 0 -6 0 10 -262144 -1 -1 256;
#X obj 197 3 bng 15 250 50 1 \$0-init \$0-ignore empty 0 -6 0 10 -262144 -1 -1;
#X obj 217 3 tgl 15 1 \$0-active \$0-active empty 0 -6 0 10 -262144 -1 -1 1 1;
#X obj 450 10 r \$0-init;
#X obj 658 10 s \$0-all;
#X obj 762 10 s \$0-read;
#X obj 866 10 r \$0-write;
#X msg 450 30 1;
#X obj 450 50 s \$0-active;
#X connect 38 0 39 0;
#X obj 658 30 r \$0-active;
#X msg 658 50 active \$1;
#X connect 40 0 41 0;
#X connect 41 0 35 0;
#X obj 866 30 route active;
#X obj 866 50 s \$0-active;
#X connect 37 0 42 0;
#X connect 42 0 43 0;
#X msg 450 70 0;
#X obj 450 90 s \$0-fm/Nonlinearity;
#X connect 34 0 44 0;
#X connect 44 0 45 0;
#X obj 658 70 r \$0-fm/Nonlinearity;
#X msg 658 90 /fm/Nonlinearity \$1;
#X connect 46 0 47 0;
#X connect 47 0 35 0;
#X obj 866 70 route /fm/Nonlinearity;
#X obj 866 90 s \$0-fm/Nonlinearity;
#X connect 42 1 48 0;
#X connect 48 0 49 0;
#X msg 450 110 0.1;
#X obj 450 130 s \$0-fm/envelopeAttack;
#X connect 34 0 50 0;
#X connect 50 0 51 0;
#X obj 658 110 r \$0-fm/envelopeAttack;
#X msg 658 130 /fm/envelopeAttack \$1;
#X connect 52 0 53 0;
#X connect 53 0 35 0;
#X obj 866 110 route /fm/envelopeAttack;
#X obj 866 130 s \$0-fm/envelopeAttack;
#X connect 48 1 54 0;
#X connect 54 0 55 0;
#X msg 450 150 0.05;
#X obj 450 170 s \$0-fm/envelopeDecay;
#X connect 34 0 56 0;
#X connect 56 0 57 0;
#X obj 658 150 r \$0-fm/envelopeDecay;
#X msg 658 170 /fm/envelopeDecay \$1;
#X connect 58 0 59 0;
#X connect 59 0 35 0;
#X obj 866 150 route /fm/envelopeDecay;
#X obj 866 170 s \$0-fm/envelopeDecay;
#X connect 54 1 60 0;
#X connect 60 0 61 0;
#X msg 450 190 0.2;
#X obj 450 210 s \$0-fm/envelopeRelease;
#X connect 34 0 62 0;
#X connect 62 0 63 0;
#X obj 658 190 r \$0-fm/envelopeRelease;
#X msg 658 210 /fm/envelopeRelease \$1;
#X connect 64 0 65 0;
#X connect 65 0 35 0;
#X obj 866 190 route /fm/envelopeRelease;
#X obj 866 210 s \$0-fm/envelopeRelease;
#X connect 60 1 66 0;
#X connect 66 0 67 0;
#X msg 450 230 0.1;
#X obj 450 250 s \$0-fm/nonLinAttack;
#X connect 34 0 68 0;
#X connect 68 0 69 0;
#X obj 658 230 r \$0-fm/nonLinAttack;
#X msg 658 250 /fm/nonLinAttack \$1;
#X connect 70 0 71 0;
#X connect 71 0 35 0;
#X obj 866 230 route /fm/nonLinAttack;
#X obj 866 250 s \$0-fm/nonLinAttack;
#X connect 66 1 72 0;
#X connect 72 0 73 0;
#X msg 450 270 0.05;
#X obj 450 290 s \$0-fm/nonLinDecay;
#X connect 34 0 74 0;
#X connect 74 0 75 0;
#X obj 658 270 r \$0-fm/nonLinDecay;
#X msg 658 290 /fm/nonLinDecay \$1;
#X connect 76 0 77 0;
#X connect 77 0 35 0;
#X obj 866 270 route /fm/nonLinDecay;
#X obj 866 290 s \$0-fm/nonLinDecay;
#X connect 72 1 78 0;
#X connect 78 0 79 0;
#X msg 450 310 0.2;
#X obj 450 330 s \$0-fm/nonLinRelease;
#X connect 34 0 80 0;
#X connect 80 0 81 0;
#X obj 658 310 r \$0-fm/nonLinRelease;
#X msg 658 330 /fm/nonLinRelease \$1;
#X connect 82 0 83 0;
#X connect 83 0 35 0;
#X obj 866 310 route /fm/nonLinRelease;
#X obj 866 330 s \$0-fm/nonLinRelease;
#X connect 78 1 84 0;
#X connect 84 0 85 0;
#X msg 450 350 0;
#X obj 450 370 s \$0-fm/squared;
#X connect 34 0 86 0;
#X connect 86 0 87 0;
#X obj 658 350 r \$0-fm/squared;
#X msg 658 370 /fm/squared \$1;
#X connect 88 0 89 0;
#X connect 89 0 35 0;
#X obj 866 350 route /fm/squared;
#X obj 866 370 s \$0-fm/squared;
#X connect 84 1 90 0;
#X connect 90 0 91 0;
#X msg 450 390 0.02;
#X obj 450 410 s \$0-fm/vibratoAmp;
#X connect 34 0 92 0;
#X connect 92 0 93 0;
#X obj 658 390 r \$0-fm/vibratoAmp;
#X msg 658 410 /fm/vibratoAmp \$1;
#X connect 94 0 95 0;
#X connect 95 0 35 0;
#X obj 866 390 route /fm/vibratoAmp;
#X obj 866 410 s \$0-fm/vibratoAmp;
#X connect 90 1 96 0;
#X connect 96 0 97 0;
#X msg 450 430 6;
#X obj 450 450 s \$0-fm/vibratoFreq;
#X connect 34 0 98 0;
#X connect 98 0 99 0;
#X obj 658 430 r \$0-fm/vibratoFreq;
#X msg 658 450 /fm/vibratoFreq \$1;
#X connect 100 0 101 0;
#X connect 101 0 35 0;
#X obj 866 430 route /fm/vibratoFreq;
#X obj 866 450 s \$0-fm/vibratoFreq;
#X connect 96 1 102 0;
#X connect 102 0 103 0;
#X coords 0 -1 1 1 235 320 1 0 0;
#X text 0 340 Generated Sat Feb 26 18:24:09 2011 by faust2pd v2.2. See http://faust.grame.fr and http://pure-lang.googlecode.com.;
