#N canvas 247 197 763 440 12;
#X obj 32 337 dac~;
#X obj 12 185 notein;
#N canvas 588 168 286 236 midi 0;
#X obj 35 15 inlet;
#X obj 96 15 inlet;
#X obj 25 53 mtof;
#X obj 92 53 / 127;
#X msg 89 96 gain \$1;
#X msg 176 52 gate \$1;
#X msg 19 94 freq \$1;
#X obj 24 143 outlet;
#X obj 81 142 outlet;
#X obj 173 99 outlet;
#X connect 0 0 2 0;
#X connect 1 0 3 0;
#X connect 1 0 5 0;
#X connect 2 0 6 0;
#X connect 3 0 4 0;
#X connect 4 0 8 0;
#X connect 5 0 9 0;
#X connect 6 0 7 0;
#X restore 8 227 pd midi;
#X msg 446 258 \; pd dsp 1;
#X msg 446 305 \; pd dsp 0;
#X obj 17 286 brass~;
#X floatatom 141 139 5 0 0 0 - - -;
#X msg 141 165 lipTension \$1;
#X obj 141 1 vsl 15 128 0 1 0 0 empty empty empty 0 -9 0 10 -262144
-1 -1 0 1;
#X floatatom 253 138 5 0 0 0 - - -;
#X obj 253 0 vsl 15 128 0 1 0 0 empty empty empty 0 -9 0 10 -262144
-1 -1 0 1;
#X msg 253 164 pressure \$1;
#X floatatom 352 136 5 0 0 0 - - -;
#X obj 352 -2 vsl 15 128 1 15 0 0 empty empty empty 0 -9 0 10 -262144
-1 -1 0 1;
#X msg 352 162 vibratoFreq \$1;
#X floatatom 479 134 5 0 0 0 - - -;
#X obj 479 -4 vsl 15 128 0 1 0 0 empty empty empty 0 -9 0 10 -262144
-1 -1 0 1;
#X msg 479 160 vibratoGain \$1;
#X floatatom 603 134 5 0 0 0 - - -;
#X obj 603 -4 vsl 15 128 0 1 0 0 empty empty empty 0 -9 0 10 -262144
-1 -1 0 1;
#X msg 603 160 slideLength \$1;
#X connect 1 0 2 0;
#X connect 1 1 2 1;
#X connect 2 0 5 0;
#X connect 2 1 5 0;
#X connect 2 2 5 0;
#X connect 5 1 0 0;
#X connect 5 2 0 1;
#X connect 6 0 7 0;
#X connect 7 0 5 0;
#X connect 8 0 6 0;
#X connect 9 0 11 0;
#X connect 10 0 9 0;
#X connect 11 0 5 0;
#X connect 12 0 14 0;
#X connect 13 0 12 0;
#X connect 14 0 5 0;
#X connect 15 0 17 0;
#X connect 16 0 15 0;
#X connect 17 0 5 0;
#X connect 18 0 20 0;
#X connect 19 0 18 0;
#X connect 20 0 5 0;
