#N canvas 323 163 901 534 12;
#X obj 42 -42 dac~;
#X obj 22 -194 notein;
#N canvas 588 168 286 236 midi 0;
#X obj 35 15 inlet;
#X obj 96 15 inlet;
#X obj 25 53 mtof;
#X obj 92 53 / 127;
#X msg 89 96 gain \$1;
#X msg 176 52 gate \$1;
#X msg 19 94 freq \$1;
#X obj 24 143 outlet;
#X obj 81 142 outlet;
#X obj 173 99 outlet;
#X connect 0 0 2 0;
#X connect 1 0 3 0;
#X connect 1 0 5 0;
#X connect 2 0 6 0;
#X connect 3 0 4 0;
#X connect 4 0 8 0;
#X connect 5 0 9 0;
#X connect 6 0 7 0;
#X restore 18 -152 pd midi;
#X msg 458 -86 \; pd dsp 1;
#X msg 458 -48 \; pd dsp 0;
#X obj 24 -97 clarinet~;
#X floatatom 113 -203 5 0 0 0 - - -;
#X obj 113 -341 vsl 15 128 0 1 0 0 empty empty empty 0 -9 0 10 -262144
-1 -1 0 1;
#X floatatom 225 -204 5 0 0 0 - - -;
#X obj 225 -342 vsl 15 128 0 1 0 0 empty empty empty 0 -9 0 10 -262144
-1 -1 0 1;
#X floatatom 356 -205 5 0 0 0 - - -;
#X obj 356 -343 vsl 15 128 1 15 0 0 empty empty empty 0 -9 0 10 -262144
-1 -1 0 1;
#X msg 356 -179 vibratoFreq \$1;
#X floatatom 483 -207 5 0 0 0 - - -;
#X obj 483 -345 vsl 15 128 0 1 0 0 empty empty empty 0 -9 0 10 -262144
-1 -1 0 1;
#X msg 483 -181 vibratoGain \$1;
#X floatatom 607 -207 5 0 0 0 - - -;
#X obj 607 -345 vsl 15 128 0 1 0 0 empty empty empty 0 -9 0 10 -262144
-1 -1 0 1;
#X msg 113 -177 noiseGain \$1;
#X msg 225 -178 vibratoAttack \$1;
#X msg 607 -181 reedStiffness \$1;
#X connect 1 0 2 0;
#X connect 1 1 2 1;
#X connect 2 0 5 0;
#X connect 2 2 5 0;
#X connect 5 1 0 0;
#X connect 5 2 0 1;
#X connect 6 0 18 0;
#X connect 7 0 6 0;
#X connect 8 0 19 0;
#X connect 9 0 8 0;
#X connect 10 0 12 0;
#X connect 11 0 10 0;
#X connect 12 0 5 0;
#X connect 13 0 15 0;
#X connect 14 0 13 0;
#X connect 15 0 5 0;
#X connect 16 0 20 0;
#X connect 17 0 16 0;
#X connect 18 0 5 0;
#X connect 19 0 5 0;
#X connect 20 0 5 0;
