#N canvas 109 150 858 463 12;
#X obj 61 278 dac~;
#X obj 22 137 notein;
#N canvas 588 168 286 236 midi 0;
#X obj 35 15 inlet;
#X obj 96 15 inlet;
#X obj 25 53 mtof;
#X obj 92 53 / 127;
#X msg 89 96 gain \$1;
#X msg 176 52 gate \$1;
#X msg 19 94 freq \$1;
#X obj 24 143 outlet;
#X obj 81 142 outlet;
#X obj 173 99 outlet;
#X connect 0 0 2 0;
#X connect 1 0 3 0;
#X connect 1 0 5 0;
#X connect 2 0 6 0;
#X connect 3 0 4 0;
#X connect 4 0 8 0;
#X connect 5 0 9 0;
#X connect 6 0 7 0;
#X restore 16 178 pd midi;
#X msg 387 204 \; pd dsp 1;
#X msg 387 242 \; pd dsp 0;
#X floatatom 317 119 5 0 0 0 - - -;
#X obj 317 -19 vsl 15 128 0 1 0 0 empty empty empty 0 -9 0 10 -262144
-1 -1 0 1;
#X floatatom 436 118 5 0 0 0 - - -;
#X obj 436 -20 vsl 15 128 0 1 0 0 empty empty empty 0 -9 0 10 -262144
-1 -1 0 1;
#X floatatom 565 117 5 0 0 0 - - -;
#X obj 565 -21 vsl 15 128 0 1 0 0 empty empty empty 0 -9 0 10 -262144
-1 -1 0 1;
#X floatatom 660 117 5 0 0 0 - - -;
#X obj 660 -21 vsl 15 128 0 1 0 0 empty empty empty 0 -9 0 10 -262144
-1 -1 0 1;
#X msg 317 145 bowPressure \$1;
#X msg 436 144 bowPosition \$1;
#X msg 215 146 selector \$1;
#X msg 225 117 1;
#X msg 265 117 0;
#X msg 565 143 baseGain \$1;
#X msg 660 143 integrationConstant \$1;
#X text 221 96 Pluck;
#X text 266 96 Bow;
#X obj 29 230 tunedBar~;
#X connect 1 0 2 0;
#X connect 1 1 2 1;
#X connect 2 0 22 0;
#X connect 2 2 22 0;
#X connect 5 0 13 0;
#X connect 6 0 5 0;
#X connect 7 0 14 0;
#X connect 8 0 7 0;
#X connect 9 0 18 0;
#X connect 10 0 9 0;
#X connect 11 0 19 0;
#X connect 12 0 11 0;
#X connect 13 0 22 0;
#X connect 14 0 22 0;
#X connect 15 0 22 0;
#X connect 16 0 15 0;
#X connect 17 0 15 0;
#X connect 18 0 22 0;
#X connect 19 0 22 0;
#X connect 22 1 0 0;
#X connect 22 2 0 1;
