#N canvas 259 22 1020 731 10;
#X obj 379 10 midi-in 4;
#X msg 649 523 \; pd dsp 1;
#X msg 649 561 \; pd dsp 0;
#X obj 391 553 audio-out;
#X obj 35 84 NLFfm;
#X obj 528 83 voiceForm;
#X obj 391 437 freeverb;
#X connect 0 0 4 0;
#X connect 0 0 5 0;
#X connect 0 1 4 1;
#X connect 0 1 5 1;
#X connect 4 1 6 1;
#X connect 4 2 6 2;
#X connect 5 1 6 1;
#X connect 5 2 6 2;
#X connect 6 1 3 1;
#X connect 6 2 3 2;
