#N canvas 22 22 974 784 10;
#X obj 9 76 clarinet;
#X obj 334 11 midi-in 4;
#X msg 546 534 \; pd dsp 1;
#X msg 546 572 \; pd dsp 0;
#X obj 290 568 audio-out;
#X obj 491 66 blowHole;
#X obj 290 453 freeverb;
#X connect 0 1 6 1;
#X connect 0 2 6 2;
#X connect 1 0 0 0;
#X connect 1 0 5 0;
#X connect 1 1 0 1;
#X connect 1 1 5 1;
#X connect 5 1 6 1;
#X connect 5 2 6 2;
#X connect 6 1 4 1;
#X connect 6 2 4 2;
