#N canvas 357 123 642 633 10;
#X obj 203 22 midi-in 4;
#X msg 412 400 \; pd dsp 1;
#X msg 412 438 \; pd dsp 0;
#X obj 145 427 audio-out;
#X obj 46 88 harpsi;
#X obj 350 87 piano;
#X obj 145 310 freeverb;
#X connect 0 0 4 0;
#X connect 0 0 5 0;
#X connect 0 1 4 1;
#X connect 0 1 5 1;
#X connect 4 1 6 1;
#X connect 4 2 6 2;
#X connect 5 1 6 1;
#X connect 5 2 6 2;
#X connect 6 1 3 1;
#X connect 6 2 3 2;
