#N canvas 4 23 1436 683 10;
#X obj 409 25 midi-in 4;
#X msg 912 476 \; pd dsp 1;
#X msg 912 514 \; pd dsp 0;
#X obj 582 480 audio-out;
#X obj 6 91 modalBar;
#X obj 470 91 tibetanBowl;
#X obj 711 91 glassHarmonica;
#X obj 950 91 uniBar;
#X obj 1187 91 tunedBar;
#X obj 582 365 freeverb;
#X connect 0 0 4 0;
#X connect 0 0 5 0;
#X connect 0 0 6 0;
#X connect 0 0 7 0;
#X connect 0 0 8 0;
#X connect 0 1 4 1;
#X connect 0 1 5 1;
#X connect 0 1 6 1;
#X connect 0 1 7 1;
#X connect 0 1 8 1;
#X connect 4 1 9 1;
#X connect 4 2 9 2;
#X connect 5 1 9 1;
#X connect 5 2 9 2;
#X connect 6 1 9 1;
#X connect 6 2 9 2;
#X connect 7 1 9 1;
#X connect 7 2 9 2;
#X connect 8 1 9 1;
#X connect 8 2 9 2;
#X connect 9 1 3 1;
#X connect 9 2 3 2;
