#N canvas 22 22 1198 791 10;
#X obj 392 11 midi-in 4;
#X msg 508 576 \; pd dsp 1;
#X msg 508 614 \; pd dsp 0;
#X obj 244 611 audio-out;
#X obj 487 88 bowed;
#X obj 953 88 NLFeks;
#X obj 6 87 sitar;
#X obj 245 88 bass;
#X obj 244 497 freeverb;
#X connect 0 0 4 0;
#X connect 0 0 5 0;
#X connect 0 0 6 0;
#X connect 0 0 7 0;
#X connect 0 1 4 1;
#X connect 0 1 5 1;
#X connect 0 1 6 1;
#X connect 0 1 7 1;
#X connect 4 1 8 1;
#X connect 4 2 8 2;
#X connect 5 1 8 1;
#X connect 5 2 8 2;
#X connect 6 1 8 1;
#X connect 6 2 8 2;
#X connect 7 1 8 1;
#X connect 7 2 8 2;
#X connect 8 1 3 1;
#X connect 8 2 3 2;
