#N canvas 11 22 1421 826 10;
#X obj 566 7 midi-in 4;
#X msg 1081 491 \; pd dsp 1;
#X msg 1081 529 \; pd dsp 0;
#X obj 556 638 audio-out;
#X obj 8 78 blowBottle;
#X obj 478 78 brass;
#X obj 948 78 saxophony;
#X obj 556 521 freeverb;
#X connect 0 0 4 0;
#X connect 0 0 5 0;
#X connect 0 0 6 0;
#X connect 0 1 4 1;
#X connect 0 1 5 1;
#X connect 0 1 6 1;
#X connect 4 1 7 1;
#X connect 4 2 7 2;
#X connect 5 1 7 1;
#X connect 5 2 7 2;
#X connect 6 1 7 1;
#X connect 6 2 7 2;
#X connect 7 1 3 1;
#X connect 7 2 3 2;
