#N canvas 1464 349 357 464 10;
#X obj 46 129 harpsi;
#X obj 46 30 midi-in 8;
#X obj 46 260 audio-out;
#X connect 0 0 2 0;
#X connect 0 1 2 1;
#X connect 0 2 2 2;
#X connect 1 0 0 0;
#X connect 1 1 0 1;
